<svg width="312" height="897" xmlns="http://www.w3.org/2000/svg">
	<defs>
		<marker refX="0" refY="0" orient="auto" style="overflow:visible" id="Arrow2Mend">
			<path d="M 8.71,4.03 L -2.20,0.01 L 8.71,-4.00 C 6.97,-1.62 6.98,1.61 8.71,4.03 z" transform="scale(-0.6,-0.6)" class="arrow" id="path3344" style="stroke:#9af"/>
		</marker>
		<marker refX="0" refY="0" orient="auto" style="overflow:visible" id="Arrow2Send">
			<path d="M 8.71,4.03 L -2.20,0.01 L 8.71,-4.00 C 6.97,-1.62 6.98,1.61 8.71,4.03 z" transform="matrix(-0.3,0,0,-0.3,0.69,0)" class="arrow" id="path3338" style="stroke:#9af"/>
		</marker>
		<marker refX="0" refY="0" orient="auto" style="overflow:visible" id="Arrow1Send">
			<path d="M 0,0 L 5,-5 L -12.5,0 L 5,5 L 0,0 z" transform="matrix(-0.2,0,0,-0.2,-1.2,0)" class="arrow" id="path3356" style="stroke:#9af"/>
		</marker>
		<marker refX="0" refY="0" orient="auto" style="overflow:visible" id="Arrow1Mend">
			<path d="M 0,0 L 5,-5 L -12.5,0 L 5,5 L 0,0 z" transform="matrix(-0.4,0,0,-0.4,-4,0)" class="arrow" id="path3362" style="stroke:#9af"/>
		</marker>
		<marker refX="0" refY="0" orient="auto" style="overflow:visible" id="Arrow1Lend">
			<path d="M 0,0 L 5,-5 L -12.5,0 L 5,5 L 0,0 z" transform="matrix(-0.8,0,0,-0.8,-10,0)" class="arrow" id="path3368" style="stroke:#9af"/>
		</marker>
	</defs>
	<style type="text/css">
		path.stroke {
			fill: none; fill-opacity: 0.75; fill-rule: evenodd;
			stroke: #9af; stroke-width: 1px; stroke-linecap: butt; stroke-linejoin: miter; stroke-opacity:1;
			marker-end: url(#Arrow1Mend);
		}
		path.arrow {
			fill-rule: evenodd;
			fill: #9af;
			stroke: #9af; stroke-width: 1pt; stroke-linejoin: round;
			marker-start: none;
		}
		text.number {
			font-family: Tahoma, Arial, Verdana, sans-serif, Lucida Sans;
			font-size: 8px;
			fill: #9af;
		}
		path.old {
			fill: #bbb;
		}
		defs marker {
			overflow: visible;
		}
	</style>
	<g>
		<path d="m283.14,851.54c1.84,0.87 3.47,1.46 4.91,1.78c0.34,0.27 0.29,0.56 -0.13,0.83l-0.92,0.60c-3.46,6.87 -6.34,12.56 -8.62,17.09c2.43,-1.65 4.25,-2.57 5.43,-2.76c1.17,-0.17 2.20,-0.15 3.09,0.09c0.89,0.25 1.63,0.78 2.19,1.63c0.56,0.81 0.96,2.51 1.21,5.10c0.25,2.56 0.56,4.70 0.92,6.45c0.37,1.75 1.29,2.65 2.76,2.71c1.45,0.03 2.81,-0.75 4.06,-2.33c1.28,-1.62 2.35,-3.78 3.23,-6.46c0.87,-2.71 1.29,-4.31 1.26,-4.78l0.50,0c1.40,1.21 2.82,2.23 4.26,3.04c-0.37,0.77 -1.03,2.22 -1.95,4.34c-0.92,2.12 -2.31,4.39 -4.12,6.78c-1.78,2.37 -3.95,3.62 -6.51,3.75c-2.53,0.12 -4.34,-0.31 -5.42,-1.31c-1.06,-1.02 -1.78,-2.56 -2.14,-4.63c-0.34,-2.06 -0.60,-4.17 -0.79,-6.32c-0.14,-2.17 -0.53,-3.57 -1.12,-4.16c-0.59,-0.59 -1.40,-0.67 -2.43,-0.23c-1.03,0.40 -2.28,1.14 -3.78,2.20c-1.5,1.03 -2.79,2.07 -3.89,3.14c-0.78,1.5 -1.87,3.56 -3.28,6.17c-1.39,2.62 -2.45,4.59 -3.17,5.95c-1.37,-1.28 -2.76,-2.17 -4.17,-2.67l0,-0.56c5.03,-7.58 9.31,-15.20 12.84,-22.87c3.56,-7.67 5.21,-11.70 4.96,-12.08c-0.09,-0.56 0.17,-0.73 0.84,-0.56"/>
		<path class="stroke" d="m276.47,855l-13.14,21.69"/>
		<path class="stroke" d="m258.88,884.77c0,0 -0.29,6.95 4.41,8.21c5.89,1.57 11.58,-2.45 17.05,-5.96"/>
		<path class="stroke" d="m301.92,892.07c4.85,-1.69 7.91,-10.72 8.98,-13.41"/>
		<text class="number" y="859.84" x="262.77">1</text>
	</g>
	<g>
		<path d="m31.9,802.44c2.62,-0.37 4.71,-0.78 6.28,-1.26c1.56,-0.5 2.96,-1.28 4.21,-2.39c1.28,-1.12 2.15,-2.56 2.62,-4.31c0.49,-1.75 0.62,-3.41 0.37,-5.01c-0.21,-1.58 -0.81,-3 -1.78,-4.20c-0.93,-1.25 -2.12,-2.03 -3.56,-2.34c-1.4,-0.31 -2.96,-0.37 -4.68,-0.17c-1.68,0.17 -3.64,0.81 -5.85,1.87c-2.21,1.06 -4.4,2.51 -6.56,4.35c0.03,2.27 0.06,4.92 0.09,7.95c0.06,3.03 0.34,6.60 0.84,10.73l-0.14,0.41c-1.4,0.08 -3.01,0.34 -4.82,0.78c-0.09,-4.20 -0.15,-7.64 -0.18,-10.26c0,-2.62 0,-4.41 0,-5.38c-2.06,2.37 -4.46,5.5 -7.21,9.37l-0.42,0.03c-1.03,-1.40 -2.18,-2.47 -3.46,-3.22c4.59,-5.06 8.29,-8.92 11.1,-11.57c0,-1.40 0,-2.65 0,-3.75c0,-1.12 0,-2.06 0,-2.81c-2.75,0.67 -5.34,1.51 -7.78,2.47c-0.15,-1.31 -0.59,-2.70 -1.31,-4.20l0.09,-0.42c3.18,-0.37 6.2,-0.87 9.04,-1.5c0.03,-1.52 0.09,-3.26 0.18,-5.20c0.09,-1.95 0.01,-3.13 -0.23,-3.50c-0.15,-0.56 0,-0.81 0.46,-0.75l4.64,0.45c0.37,0.15 0.37,0.40 0,0.75l-0.51,0.75c-0.12,2.03 -0.21,4.01 -0.28,5.95l0.09,-0.14c0.15,-0.12 0.31,-0.12 0.46,0c1.21,0.56 2.34,1.17 3.37,1.87c0.46,0.40 0.37,0.79 -0.28,1.17l-1.68,0.92c-0.75,1.14 -1.45,2.20 -2.1,3.17l0.04,1.16c1.84,-1.37 3.82,-2.5 5.95,-3.37c2.15,-0.90 4.28,-1.46 6.37,-1.67c2.09,-0.21 4.17,-0.07 6.23,0.41c2.06,0.46 3.87,1.62 5.43,3.46c1.59,1.83 2.51,3.77 2.76,5.81c0.24,2 0.12,4.07 -0.37,6.22c-0.46,2.12 -1.45,3.92 -2.95,5.42c-1.5,1.5 -3.18,2.70 -5.06,3.60c-1.87,0.87 -4.43,1.67 -7.68,2.42c-0.5,-1.5 -1.07,-2.72 -1.73,-3.70l0,-0.46"/>
		<path class="stroke" d="m26.74,761.90l0.22,9.65"/>
		<path class="stroke" d="m3.88,776.95l12.53,-2.35"/>
		<path class="stroke" d="m7,795.96c0,0 -5.65,6.82 -3.73,9.19c1.92,2.37 8.07,0.12 12.7,-1.09"/>
		<path class="stroke" d="m35.96,775.17c12.94,-3.23 15.95,7.37 17.92,12.39"/>
		<text class="number" y="767.57" x="29.13">1</text>
		<text class="number" y="773.62" x="2.62">2</text>
	</g>
	<g>
		<path d="m21.72,684.20l-2.25,3.67c4.21,1.78 9.12,3.37 14.68,4.75c0.46,-1.65 0.87,-2.96 1.25,-3.92l-0.18,-0.34c-5.4,-0.89 -9.9,-2.27 -13.5,-4.14l0,-0.01zm-4.68,10.56c-0.32,-0.02 -0.47,0.20 -0.5,0.71c0.21,0.62 0.12,1.83 -0.25,3.62c-0.34,1.75 -0.65,3.62 -0.96,5.62c-0.28,2 -0.59,4.75 -0.9,8.25l4.5,1.02c0.93,-1.39 2.21,-2.77 3.84,-4.08c1.65,-1.34 3.78,-2.25 6.37,-2.71c2.62,-0.5 4.78,-0.58 6.43,-0.31c1.65,0.25 2.9,0.90 3.78,2c0.9,1.06 1.24,2.53 1,4.37c-0.21,1.84 -1.18,3.31 -2.9,4.42c-1.68,1.12 -3.68,1.84 -6,2.15c-2.28,0.31 -5.56,0.25 -9.81,-0.17l-0.18,0.25c0.37,1.17 0.59,2.56 0.62,4.12c5.74,0.25 10.09,-0.09 13.03,-1c2.96,-0.90 5.24,-2.25 6.84,-4.03c1.62,-1.77 2.56,-3.64 2.81,-5.62c0.24,-2 -0.15,-3.92 -1.21,-5.81c-1.03,-1.87 -3.03,-3.14 -5.96,-3.87c-2.9,-0.75 -5.96,-0.77 -9.18,-0.06c-3.21,0.67 -6.21,2.17 -9.03,4.46c0.09,-1.09 0.24,-2.40 0.46,-3.90c0.21,-1.52 0.62,-3.89 1.21,-7.12l0.68,-0.67c0.21,-0.23 0.21,-0.46 -0.03,-0.65l-4.28,-0.83c-0.14,-0.07 -0.26,-0.10 -0.37,-0.12l-0.01,-0.02z"/>
		<path class="stroke" d="m22.45,680.56c0,0 10.38,3.69 13.85,4.91"/>
		<path class="stroke" d="m12.7,688.89c-0.21,3.09 -0.47,7.59 -0.69,12.73"/>
		<path class="stroke" d="m12.21,708.03c-0.83,2.79 -2.28,9.20 -0.42,10.47c1.74,1.18 5.59,-1 11.41,-3.62"/>
		<text class="number" y="693.91" x="5.82">2</text>
		<text class="number" y="681.78" x="34.81">1</text>
	</g>
	<g>
		<path d="m21.65,605.96c0.84,2.87 1.68,5.59 2.53,8.15c2.84,-1.09 5.59,-2.07 8.25,-2.95c0.06,-2.06 0.09,-3.85 0.09,-5.39c0,-1.56 -0.04,-2.45 -0.14,-2.66c-0.18,-0.37 -0.09,-0.67 0.28,-0.89l4.64,0.46c0.43,0.06 0.53,0.31 0.28,0.75l-0.6,0.83c-0.21,2.25 -0.37,4.21 -0.46,5.90c1.28,-0.23 2.74,-0.35 4.4,-0.32c1.68,0 3.35,0.46 5.01,1.39c1.68,0.93 2.96,2.14 3.84,3.60c0.87,1.42 1.31,2.95 1.31,4.53c0.03,1.56 -0.28,3.09 -0.93,4.59c-0.65,1.45 -1.68,2.64 -3.09,3.56c-1.37,0.89 -2.92,1.45 -4.64,1.67c-1.68,0.21 -3.43,0.01 -5.25,-0.59c-1.78,-0.62 -3.71,-1.92 -5.81,-3.89l2.95,-3.14c1.62,1.67 2.99,2.72 4.12,3.14c1.15,0.39 2.21,0.58 3.18,0.56c0.99,-0.06 1.84,-0.28 2.53,-0.65c0.71,-0.37 1.34,-1.07 1.87,-2.09c0.56,-1.03 0.79,-2.04 0.7,-3.04c-0.06,-1.02 -0.34,-2.00 -0.84,-2.94c-0.5,-0.92 -1.29,-1.67 -2.39,-2.20c-1.09,-0.53 -2.43,-0.78 -4.03,-0.78c-1.56,0 -3.5,0.38 -5.81,1.16c-2.28,0.75 -5.01,1.77 -8.2,3.08c1.53,4.31 2.93,8.01 4.21,11.10c1.28,3.06 2.9,6.67 4.87,10.87l0,0.56c-1.75,0.37 -3.4,0.96 -4.96,1.77c-1.62,-4.77 -3.04,-8.72 -4.26,-11.84c-1.18,-3.15 -2.46,-6.75 -3.84,-10.78c-3.03,1.31 -6.29,2.79 -9.79,4.45c-0.68,-1.42 -1.59,-2.78 -2.71,-4.07l0.23,-0.41c3.93,-1.25 7.59,-2.51 10.96,-3.78c-0.62,-1.87 -1.26,-3.79 -1.92,-5.76c-0.62,-1.96 -1.23,-3.16 -1.82,-3.59c-0.34,-0.28 -0.31,-0.60 0.09,-0.98l5.01,-1.39c0.49,-0.03 0.65,0.19 0.46,0.69l-0.32,1.35"/>
		<path class="stroke" d="m1.01,618.15c0,0 10.49,-3.23 14.99,-4.35"/>
		<text class="number" y="614.18" x="2.04">1</text>
		<path class="stroke" d="m42.34,595.77c0,0 -1.23,8.34 -1.63,11.08"/>
		<text class="number" y="603.88" x="44.63">2</text>
		<path class="stroke" d="m22.97,596.13c0,0 3.63,11.22 4.63,14.10"/>
		<text class="number" y="600.85" x="16.44">3</text>
	</g>
	<g>
		<path d="m27.59,514.72c-0.46,0.06 -0.62,0.31 -0.5,0.75c0.34,0.42 0.62,2.81 0.84,7.12c-5.46,0.28 -10.68,0.31 -15.62,0.09l-0.21,0.31c0.5,1.52 0.71,2.92 0.65,4.17c5,-0.34 10.12,-0.65 15.37,-0.92c0.06,1.62 0.09,2.89 0.09,3.87c0.03,0.92 0.03,1.77 0.03,2.52c-3.93,0.12 -6.5,0.12 -7.71,0c-1.18,-0.14 -2.34,-0.56 -3.46,-1.25l-2.21,3.37c1.62,0.92 3.21,1.46 4.78,1.62c1.59,0.12 4.49,0.12 8.68,-0.02c0.03,1.27 0.06,3.06 0.09,5.37c-2.43,-0.42 -4.62,-0.53 -6.56,-0.31c-1.9,0.21 -3.56,0.81 -4.93,1.77c-1.34,0.96 -2.21,2.15 -2.65,3.59c-0.43,1.40 -0.5,2.62 -0.18,3.65c0.34,1 0.96,1.89 1.87,2.67c0.93,0.77 2.06,1.37 3.37,1.77c1.34,0.42 2.62,0.65 3.87,0.65c1.24,0 2.53,-0.15 3.81,-0.42c1.28,-0.28 2.43,-0.90 3.46,-1.87c1.03,-0.96 1.62,-2 1.81,-3.12c0.18,-1.12 0.31,-2.31 0.34,-3.53c3.28,1.25 6.81,3.21 10.59,5.87c0.81,-1.70 1.65,-3.12 2.56,-4.17l0,-0.56c-4.81,-2.21 -9.18,-3.87 -13.12,-4.96c-0.06,-2.89 -0.09,-5.08 -0.12,-6.58c4.65,-0.25 8.06,-0.46 10.21,-0.65l-0.37,-4.02c-2.62,0.42 -5.93,0.75 -9.93,0.95c0,-0.52 -0.03,-1.20 -0.06,-2.06c0,-0.87 -0.03,-2.33 -0.09,-4.39c5.43,-0.28 9.65,-0.56 12.65,-0.84l-0.65,-4.12c-3.4,0.53 -7.4,0.96 -12.03,1.28c-0.03,-1.65 -0.09,-3.49 -0.15,-5.53l0.65,-1.09c0.21,-0.39 0.12,-0.64 -0.28,-0.77l-4.87,-0.17l-0.02,-0.01zm-3.81,29.84c1.2,0.02 2.71,0.31 4.56,0.81c-0.03,1.42 -0.12,2.62 -0.28,3.58c-0.15,0.92 -0.59,1.65 -1.34,2.12c-0.75,0.42 -1.56,0.71 -2.4,0.84c-0.84,0.08 -1.96,0 -3.4,-0.25c-1.4,-0.28 -2.31,-1.06 -2.68,-2.34c-0.37,-1.31 -0.03,-2.37 1,-3.20c1.03,-0.87 2.18,-1.37 3.46,-1.5c0.32,-0.03 0.69,-0.07 1.09,-0.06l-0.01,0z"/>
		<path class="stroke" d="m8.58,519.59c0,0 11.53,-0.01 16.25,-0.17"/>
		<text class="number" y="522.41" x="2.98">1</text>
		<path class="stroke" d="m8.58,529.59c0,0 12.56,-0.15 17.28,-0.33"/>
		<text class="number" y="531.38" x="2.96">2</text>
		<path class="stroke" d="m36.03,508.87c0,0 -0.29,6.98 -0.37,9.83"/>
		<text class="number" y="516.88" x="39.99">3</text>
		<path class="stroke" d="m17.15,559.42c-12.8,-3.72 -8.16,-12.95 -6.95,-17.28"/>
		<path class="stroke" d="m40.31,541.90c0.62,0.20 10.32,3.84 10.32,3.84"/>
	</g>
	<g>
		<path d="m35.75,432c-0.4,0.06 -0.56,0.31 -0.43,0.75c0.28,0.42 0.43,1.56 0.46,3.39c0.06,1.84 0.12,3.25 0.18,4.20c-4.09,0.18 -8.5,0.12 -13.21,-0.17l-0.21,0.34c0.18,1.21 0.31,2.56 0.4,4.06c4.65,-0.12 9.06,-0.28 13.18,-0.45c0,0.37 0.03,1.28 0.09,2.70c0.09,1.43 0.12,3.43 0.12,5.96c0.03,2.53 0.06,4.14 0.06,4.89c-2.03,-0.42 -3.81,-0.59 -5.34,-0.5c-1.53,0.09 -3,0.5 -4.4,1.25c-1.37,0.70 -2.28,1.78 -2.68,3.14c-0.37,1.37 -0.4,2.56 -0.12,3.56c0.31,0.95 0.78,1.78 1.4,2.42c0.62,0.65 1.59,1.21 2.9,1.68c1.34,0.5 2.56,0.75 3.65,0.78c1.09,0.03 2.21,-0.06 3.37,-0.31c1.18,-0.25 2.21,-0.75 3.12,-1.46c0.93,-0.70 1.53,-1.62 1.78,-2.70c0.24,-1.12 0.43,-2 0.53,-2.62c2.18,1.06 4.71,2.59 7.59,4.56c0.74,-1.81 1.53,-3.28 2.37,-4.37l0,-0.37c-3.81,-1.71 -7.06,-3 -9.78,-3.87c0,-0.93 -0.06,-2.71 -0.15,-5.31c-0.09,-2.62 -0.15,-4.70 -0.21,-6.31c-0.03,-1.62 -0.06,-2.75 -0.09,-3.37c3.43,-0.14 6.21,-0.34 8.37,-0.53l-0.59,-4.03c-2.37,0.28 -5,0.53 -7.87,0.75c-0.06,-1.87 -0.12,-3.98 -0.18,-6.37l0.46,-0.75c0.34,-0.34 0.31,-0.59 -0.09,-0.78l-4.68,-0.17l0,-0.01zm-24.9,1.25c-0.53,0.03 -0.65,0.25 -0.4,0.64c0.28,0.31 0.28,2.14 0,5.5c-0.25,3.34 -0.46,7.56 -0.65,12.64c-0.15,5.09 -0.09,8.78 0.18,11.09c0.31,2.28 0.93,4.12 1.87,5.53c0.93,1.42 2.06,2.06 3.37,1.87c1.31,-0.14 3.09,-1.56 5.34,-4.25c-1.03,-1.09 -2.06,-2.34 -3.09,-3.75l-0.25,0.03c-0.9,1.84 -1.53,2.67 -1.9,2.5c-0.37,-0.17 -0.71,-1.03 -1.03,-2.53c-0.31,-1.5 -0.4,-4.93 -0.28,-10.28c0.15,-5.34 0.56,-10.93 1.21,-16.81l0.65,-0.75c0.37,-0.37 0.31,-0.65 -0.15,-0.81l-4.87,-0.65l0,0.01zm20.75,27.28c0.14,-0.01 0.29,0 0.46,0c1.01,0.03 2.44,0.32 4.25,0.81c-0.03,0.92 -0.12,1.87 -0.28,2.81c-0.12,0.89 -0.56,1.53 -1.31,1.87c-0.75,0.31 -1.53,0.5 -2.31,0.56c-0.78,0.06 -1.71,-0.06 -2.84,-0.37c-1.09,-0.31 -1.71,-1.03 -1.87,-2.14c-0.12,-1.12 0.15,-1.92 0.87,-2.42c0.74,-0.53 1.62,-0.87 2.62,-1.03c0.12,-0.01 0.26,-0.05 0.4,-0.06l0.01,-0.01z"/>
		<path class="stroke" d="m7.41,435.56c-2.19,7.57 -1.71,15.51 -0.95,23.82"/>
		<text class="number" y="434.14" x="4.78">1</text>
		<path class="stroke" d="m21.23,437.45c0,0 6.88,-0.01 11.6,-0.17"/>
		<text class="number" y="433.97" x="23.29">2</text>
		<path class="stroke" d="m43.06,424.82c0,0 0.61,6.98 0.98,11.89"/>
		<text class="number" y="428.28" x="45.74">3</text>
		<path class="stroke" d="m22.65,467.94c-4.53,-14.54 6.45,-12.84 10.21,-12.97"/>
		<path class="stroke" d="m44.13,455.78l7.92,3.85"/>
	</g>
	<g>
		<path d="m22.85,348.97c-0.31,0.09 -0.5,0.31 -0.53,0.64c0.31,0.56 0.21,1.67 -0.28,3.37c-0.46,1.68 -0.87,3.09 -1.21,4.21c-3.03,0.31 -6.31,0.45 -9.84,0.45c0.37,1.34 0.62,2.78 0.71,4.31c2.68,-0.25 5.24,-0.48 7.71,-0.78c-0.81,2.09 -1.96,4.64 -3.46,7.70c-1.46,3.03 -3.37,6.31 -5.75,9.81l0.03,0.39c1.18,0.62 2.49,1.53 3.9,2.71c2.62,-4.81 4.65,-8.87 6.09,-12.17c1.46,-3.31 2.71,-6.34 3.78,-9.12c3.96,-0.56 7.12,-1.12 9.43,-1.67l-1.31,-3.84c-1.9,0.62 -4.15,1.14 -6.71,1.59c0.49,-1.59 1.06,-3.39 1.65,-5.39l0.68,-0.75c0.4,-0.37 0.4,-0.62 0,-0.78l-4.9,-0.70l0.01,0.01zm16.25,7.31l-1.78,3.64c3.53,1.37 7.18,3.39 10.96,6.09c0.96,-1.56 1.81,-2.89 2.53,-4.06c-4.21,-2.14 -8.12,-4.06 -11.71,-5.67zm-4.68,9.06c-0.59,0 -0.81,0.25 -0.65,0.75c0.21,0.39 0.37,1.59 0.46,3.59c0.09,2 0.15,4.25 0.15,6.71c-1.78,-0.34 -3.43,-0.46 -4.96,-0.37c-1.5,0.06 -2.9,0.37 -4.21,0.93c-1.28,0.53 -2.28,1.42 -2.96,2.70c-0.68,1.28 -1,2.56 -0.93,3.84c0.09,1.28 0.59,2.37 1.5,3.31c0.9,0.92 2.03,1.56 3.34,1.87c1.34,0.34 2.56,0.53 3.65,0.53c1.12,0 2.24,-0.14 3.37,-0.45c1.12,-0.28 2.12,-0.84 3,-1.67c0.87,-0.81 1.4,-1.81 1.62,-2.96c0.24,-1.17 0.4,-2.06 0.46,-2.64c1.12,0.46 2.37,1.09 3.75,1.87c1.37,0.78 3.18,1.87 5.4,3.28c0.71,-1.59 1.49,-3 2.34,-4.20c-4.68,-2.34 -8.43,-4 -11.25,-4.92c-0.03,-3.31 -0.06,-6.75 -0.09,-10.31l0.4,-0.67c0.28,-0.37 0.21,-0.65 -0.18,-0.81l-4.21,-0.31l0,-0.01zm-3.9,14c0.53,0 1.01,0.04 1.43,0.14c0.84,0.21 1.62,0.40 2.34,0.59c-0.03,0.71 -0.12,1.5 -0.25,2.34c-0.12,0.84 -0.4,1.53 -0.87,2.03c-0.46,0.5 -1.03,0.81 -1.68,0.95c-0.65,0.12 -1.56,0.17 -2.71,0.14c-1.12,-0.06 -2,-0.31 -2.62,-0.70c-0.59,-0.39 -0.84,-1 -0.75,-1.81c0.09,-0.84 0.34,-1.59 0.75,-2.21c0.4,-0.64 1.24,-1.09 2.56,-1.31c0.65,-0.12 1.27,-0.16 1.81,-0.17l-0.01,0z"/>
		<text class="number" y="352.88" x="47.34">3</text>
		<path class="stroke" d="m5.78,354.26c1.47,0 10.47,-1.62 10.47,-1.62"/>
		<path class="stroke" d="m33.95,343.48l-3.98,8.70"/>
		<path class="stroke" d="m41.03,353.23l11.35,5.45"/>
		<path class="stroke" d="m41.77,365.47l0.14,10.32"/>
		<text class="number" y="346.29" x="35.01">2</text>
		<text class="number" y="374.44" x="45.19">4</text>
		<text class="number" y="350.75" x="4.93">1</text>
	</g>
	<g>
		<path d="m23.1,263.41c-0.43,0.09 -0.65,0.31 -0.68,0.64c0.31,0.56 0.24,1.78 -0.18,3.62c-0.4,1.81 -0.71,3.17 -0.93,4.12c-2.84,0.18 -5.9,0.25 -9.15,0.18l-0.21,0.31c0.4,1.45 0.65,2.89 0.75,4.28c2.62,-0.21 5.12,-0.46 7.53,-0.71c-0.31,1.12 -0.84,3.03 -1.59,5.68c-0.71,2.62 -1.62,5.45 -2.71,8.53c-1.09,3.03 -2.65,6.37 -4.68,10.06l0.06,0.62c1.46,0.67 2.9,1.45 4.34,2.37c1.99,-4.78 3.49,-8.73 4.5,-11.92c1.03,-3.20 1.96,-6.23 2.81,-9.09c0.84,-2.84 1.49,-5.12 1.93,-6.81c4.9,-0.62 8.71,-1.18 11.43,-1.68l0.03,-0.28l-1.21,-3.92c-2.71,0.81 -5.78,1.42 -9.21,1.87c0.43,-1.73 0.87,-3.56 1.31,-5.45l0.78,-0.89c0.28,-0.34 0.21,-0.56 -0.18,-0.67l-4.68,-0.81l-0.06,-0.01zm21.4,14.20c-1.53,0.01 -3.09,0.06 -4.62,0.12c-3.03,0.09 -5.53,0.25 -7.53,0.46l0.37,4.03c1.84,-0.34 4.18,-0.53 7.06,-0.56c2.9,-0.06 5.87,0.06 8.9,0.34c0.09,-1.46 0.24,-2.93 0.43,-4.37c-1.54,-0.03 -3.08,-0.04 -4.62,-0.03l0.01,0.01zm-13.43,12.37l-4.03,0.12c0.06,1.78 0.28,3.34 0.65,4.68c0.37,1.34 1.06,2.56 2.03,3.62c0.96,1.03 2.53,1.78 4.71,2.25c2.21,0.42 6.96,0.56 14.21,0.39c0.09,-1.48 0.37,-2.89 0.87,-4.20l-0.31,-0.39c-6.62,0.45 -10.9,0.53 -12.84,0.20c-1.93,-0.31 -3.25,-0.81 -3.93,-1.53c-0.68,-0.70 -1.15,-2.42 -1.37,-5.14l0.01,0.00z"/>
		<path class="stroke" d="m7.07,268.38c1.47,0 10.47,-1.62 10.47,-1.62"/>
		<path class="stroke" d="m35.25,257.60l-3.98,8.70"/>
		<text class="number" y="260.42" x="36.31">2</text>
		<text class="number" y="264.88" x="6.23">1</text>
		<path class="stroke" d="m39.11,274.16l11.5,0.29"/>
		<text class="number" y="270.71" x="43.93">3</text>
		<path class="stroke" d="m25.96,297.31c2.21,8.26 13.27,6.97 18.29,6.92"/>
		<text class="number" y="296.98" x="20.64">4</text>
	</g>
	<g>
		<path d="m13.13,193.17c-0.06,-1.31 -0.31,-2.67 -0.75,-4.06l0.23,-0.32c5.78,0.21 10.96,0.06 15.56,-0.45c-0.65,-1.49 -1.28,-3.09 -1.87,-4.78c-0.59,-1.70 -1.06,-2.73 -1.4,-3.09c-0.34,-0.39 -0.28,-0.67 0.18,-0.84l4.59,-0.78c0.31,0.03 0.4,0.23 0.28,0.59l-0.14,0.84c0.81,2.93 1.65,5.42 2.53,7.45c3.81,-0.68 7.39,-1.62 10.73,-2.81l1.68,3.93c-3.18,0.95 -6.71,1.78 -10.59,2.42c0.78,1.40 1.7,2.93 2.76,4.59c1.09,1.64 3.4,4.42 6.93,8.28l-3.7,3.03c-2,-1.09 -3.98,-1.81 -5.95,-2.2c-1.93,-0.37 -4.03,-0.56 -6.28,-0.59c-2.25,-0.06 -3.95,0.20 -5.1,0.84c-1.15,0.59 -1.96,1.28 -2.43,2.10c-0.46,0.81 -0.67,1.67 -0.6,2.62c0.06,0.89 0.54,1.75 1.45,2.56c0.9,0.81 2.34,1.40 4.31,1.78c2,0.34 4.06,0.5 6.18,0.46c2.12,-0.06 4.59,-0.31 7.4,-0.75l0.09,0.32c-0.25,1.12 -0.53,2.59 -0.84,4.39c-3.65,0.14 -6.85,0.14 -9.6,-0.04c-2.75,-0.14 -5.06,-0.59 -6.93,-1.34c-1.84,-0.75 -3.34,-1.82 -4.5,-3.23c-1.12,-1.40 -1.75,-2.78 -1.87,-4.12c-0.09,-1.34 0.21,-2.64 0.93,-3.92c0.75,-1.28 1.85,-2.37 3.32,-3.28c1.5,-0.93 3.12,-1.49 4.87,-1.68c1.75,-0.17 3.45,-0.20 5.1,-0.09c1.68,0.12 3.79,0.42 6.32,0.89c-1.53,-1.99 -2.73,-3.75 -3.6,-5.28c-0.87,-1.53 -1.71,-3.09 -2.53,-4.68c-4.75,0.62 -10.34,1.04 -16.78,1.25"/>
		<path class="stroke" d="m10.05,185.86c1.47,0 13.49,-1.3 13.49,-1.3"/>
		<text class="number" y="183.07" x="10.12">1</text>
		<path class="stroke" d="m31.09,171.81l4.81,11.86"/>
		<text class="number" y="173.4" x="33.74">2</text>
		<path class="stroke" d="m22.52,198.75c-3.84,0.06 -10.57,3.11 -11.56,7.98c-0.97,4.82 2.44,8.21 8.88,13.84"/>
	</g>
	<g>
		<path d="m22.33,96.04c-0.43,0.09 -0.65,0.31 -0.68,0.65c0.31,0.56 0.24,1.93 -0.18,4.12c-0.43,2.15 -0.87,4.03 -1.28,5.62c-3.75,0.4 -6.71,0.65 -8.93,0.78l-0.25,0.28c0.21,0.96 0.34,2.4 0.37,4.31c2.31,-0.43 4.87,-0.87 7.65,-1.31c-0.18,0.59 -0.65,2.03 -1.37,4.31c-0.71,2.28 -1.65,4.84 -2.81,7.67c-1.15,2.84 -2.56,5.75 -4.21,8.68l0,0.39c1.24,0.5 2.65,1.15 4.18,1.96c1.4,-3.62 2.68,-6.90 3.84,-9.84c1.15,-2.95 2.12,-5.73 2.9,-8.34c0.81,-2.59 1.37,-4.39 1.68,-5.46c3.78,-0.53 6.15,-0.43 7.15,0.31c0.99,0.75 1.53,2.09 1.56,4.03c0.03,1.9 0,3.5 -0.06,4.74c-0.03,1.25 -0.15,2.53 -0.37,3.87c-0.18,1.31 -0.53,2.53 -1.06,3.64c-0.5,1.09 -1.03,1.84 -1.59,2.25c-0.53,0.37 -1.12,0.28 -1.78,-0.28c-0.65,-0.59 -1.46,-1.45 -2.4,-2.64c-0.46,0.95 -1.4,2.09 -2.84,3.37c1.53,1.31 2.53,2.25 3.03,2.81c0.53,0.56 1.09,1 1.65,1.34c0.59,0.37 1.4,0.5 2.43,0.34c1.03,-0.15 2.09,-0.84 3.18,-2.06c1.09,-1.21 1.87,-2.59 2.37,-4.12c0.53,-1.53 0.9,-2.95 1.09,-4.28c0.18,-1.31 0.28,-2.70 0.31,-4.25c0.06,-1.56 0.03,-3.53 -0.12,-5.89c-0.15,-2.4 -0.9,-4.12 -2.25,-5.15c-1.34,-1.03 -2.56,-1.68 -3.65,-1.93c-1.06,-0.24 -2.96,-0.24 -5.68,0c0.59,-2.46 1.18,-5.12 1.75,-7.96l0.5,-0.56c0.31,-0.28 0.31,-0.49 0,-0.68l-4.12,-0.75l-0.01,0.02zm19.84,6.46l-3.18,2.71c1.99,2.21 3.78,4.65 5.34,7.31c1.59,2.62 3.06,5.87 4.4,9.78c1.53,-0.90 2.96,-1.71 4.31,-2.43l0,-0.31c-1.59,-3.53 -3.21,-6.56 -4.87,-9.09c-1.65,-2.53 -3.65,-5.18 -6,-7.96l0,-0.01z"/>
		<path class="stroke" d="m5.71,104.52l11.8,-0.88"/>
		<text class="number" y="102.23" x="4.15">1</text>
		<path class="stroke" d="m32.12,92.87l-3.13,10.25"/>
		<text class="number" y="91.37" x="31.29">2</text>
		<path class="stroke" d="m46.71,100.22c0.83,0.83 8.34,13.14 8.34,13.14"/>
		<text class="number" y="99.53" x="47.94">3</text>
	</g>
	<g>
		<path d="m21.65,12.19c-0.23,0.07 -0.3,0.32 -0.18,0.75c0.25,0.34 0.25,2.09 -0.03,5.25c-2.68,0.09 -5.65,0.06 -8.87,-0.06l-0.18,0.09c0.09,1.25 0.15,2.62 0.18,4.12c3.09,-0.12 5.96,-0.24 8.59,-0.4c-0.12,2.31 -0.18,4.93 -0.15,7.9c-1.84,0.81 -3.46,1.84 -4.9,3.09c-1.43,1.25 -2.62,2.78 -3.53,4.59c-0.87,1.78 -1.25,3.75 -1.15,5.9c0.09,2.12 0.62,3.81 1.59,5.03c1,1.18 2.31,1.87 3.96,2.09c1.65,0.25 3.21,0.03 4.65,-0.68c1.43,-0.68 2.53,-1.31 3.28,-1.84l0.59,1.5c2.06,-1.12 3.56,-1.81 4.46,-2.09l0.03,-0.53c-0.46,-0.84 -0.9,-1.65 -1.31,-2.46c1.75,-2.06 3.15,-4.15 4.21,-6.28c1.06,-2.15 2.03,-4.46 2.87,-6.93c1.09,0.15 2.37,0.5 3.84,1.03c1.5,0.53 2.75,1.53 3.78,3c1.03,1.46 1.5,2.96 1.4,4.53c-0.09,1.56 -0.68,2.96 -1.78,4.21c-1.09,1.25 -2.59,2.25 -4.53,2.96c-1.9,0.71 -3.87,1.21 -5.9,1.5l0,0.5c1,1.37 1.68,2.71 2.09,4c2.28,-0.5 4.53,-1.28 6.71,-2.34c2.21,-1.06 4.12,-2.65 5.71,-4.75c1.62,-2.12 2.4,-4.24 2.34,-6.37c-0.06,-2.15 -0.78,-4.18 -2.15,-6.12c-1.37,-1.93 -3.15,-3.28 -5.31,-4.03c-2.15,-0.78 -3.84,-1.31 -5.09,-1.56l0.59,-2l0.75,-0.65c0.37,-0.37 0.31,-0.65 -0.18,-0.81l-4.34,-0.87c-0.56,-0.06 -0.81,0.18 -0.75,0.75c0.18,0.15 0.03,1.21 -0.46,3.21c-3,0.15 -5.53,0.53 -7.56,1.09c0,-1.81 0.09,-4.09 0.28,-6.84c0.84,-0.09 2.5,-0.24 4.96,-0.46c2.5,-0.24 5.56,-0.68 9.18,-1.31l-1.15,-3.9c-3.71,0.9 -7.96,1.59 -12.71,2.03c0.12,-1.24 0.25,-2.59 0.37,-4l0.62,-0.59c0.34,-0.34 0.25,-0.59 -0.25,-0.71l-4.31,-0.5c-0.11,-0.01 -0.2,-0.02 -0.28,0l0.02,-0.04zm9.84,18.75c-0.65,2.03 -1.34,3.84 -2.09,5.46c-0.75,1.59 -1.56,2.96 -2.4,4.12c-0.34,-0.96 -0.68,-2.09 -1.06,-3.4c-0.37,-1.34 -0.65,-2.99 -0.84,-4.96c2.53,-0.71 4.65,-1.12 6.4,-1.21l-0.01,-0.01zm-10.21,2.81c0.15,1.62 0.4,3.25 0.71,4.87c0.34,1.62 0.84,3.46 1.53,5.53c-0.56,0.46 -1.28,0.96 -2.15,1.53c-0.87,0.53 -1.87,0.84 -3,0.9c-1.12,0.06 -1.9,-0.21 -2.37,-0.84c-0.43,-0.62 -0.65,-1.62 -0.65,-3c0.03,-1.4 0.34,-2.74 0.93,-4.03c0.62,-1.31 1.43,-2.37 2.46,-3.18c1.06,-0.84 1.9,-1.43 2.53,-1.78l0.01,0z"/>
		<path class="stroke" d="m5.29,15.42l12.98,-0.29"/>
		<text class="number" y="12.69" x="4.9">1</text>
		<path class="stroke" d="m31.71,4.24l-3.13,10.26"/>
		<text class="number" y="10.42" x="32.94">2</text>
		<path class="stroke" d="m41.58,23.98l-5.74,15.58"/>
		<text class="number" y="26.8" x="42.04">3</text>
		<path class="stroke" d="m19.33,53.53c-20.13,-2.79 -8.91,-18.5 -5.66,-23.88"/>
	</g>
	<g>
		<path class="old" d="m92.7,771.53c-0.1,0 -0.2,0.03 -0.31,0.12l-0.53,0.81c-3.53,0.81 -6.03,1.34 -7.53,1.62c-1.46,0.25 -3.18,0.40 -5.12,0.42l-0.21,0.59c1.09,1.21 1.81,2.39 2.18,3.56c3.87,-1.12 7.24,-2.03 10.09,-2.71c-0.43,2.42 -0.89,4.71 -1.39,6.84c-0.25,0.06 -0.9,0.25 -1.93,0.52c-1.03,0.25 -2.87,1.09 -5.53,2.56c-2.65,1.46 -4.81,3.43 -6.5,5.87c-1.65,2.43 -2.53,4.75 -2.62,6.96c-0.09,2.21 0.15,3.90 0.78,5.06c0.65,1.12 1.56,2 2.68,2.62c1.12,0.59 2.21,0.87 3.31,0.81c1.12,-0.08 2.31,-0.58 3.53,-1.45c1.24,-0.87 2.65,-2.81 4.21,-5.84c1.59,-3.06 2.78,-5.77 3.59,-8.15c0.81,-2.37 1.43,-4.39 1.87,-6.06c1.65,-0.14 3.46,-0.17 5.43,-0.08c1.96,0.08 3.74,0.56 5.31,1.39c1.59,0.81 2.74,2.03 3.46,3.62c0.74,1.58 1.06,3.14 0.96,4.70c-0.09,1.56 -0.78,3.21 -2.06,4.92c-2.37,-2.42 -4.46,-3.81 -6.31,-4.12c-1.81,-0.33 -3.43,-0.14 -4.87,0.56c-1.43,0.71 -2.25,2.15 -2.43,4.34c-0.18,2.17 0.28,3.92 1.4,5.25c1.15,1.27 2.81,1.92 4.96,1.92c2.18,0.02 4.31,-0.62 6.4,-1.92c2.12,-1.34 3.81,-2.96 5.03,-4.90c1.21,-1.92 1.87,-3.92 2,-6c0.15,-2.08 -0.21,-4.12 -1.15,-6.06c-0.9,-1.92 -2.75,-3.58 -5.53,-5c-2.75,-1.42 -5.18,-2.14 -7.28,-2.14c-2.06,0 -3.5,0 -4.34,0.02c0.53,-2.12 1.09,-4.46 1.68,-7.02l0.65,-0.31c0.74,-0.34 0.78,-0.75 0.09,-1.18c-1.34,-0.70 -2.56,-1.39 -3.65,-2.06c-0.1,-0.08 -0.23,-0.12 -0.34,-0.12l0.03,0.02zm-3.87,15.28c-0.28,1.02 -0.84,2.75 -1.65,5.14c-0.81,2.37 -1.84,4.65 -3.09,6.84c-1.25,2.17 -2.17,3.5 -2.84,3.92c-0.65,0.39 -1.34,0.5 -2.03,0.31c-0.68,-0.21 -1.21,-0.71 -1.62,-1.5c-0.37,-0.81 -0.53,-1.90 -0.43,-3.28c0.12,-1.39 0.87,-3.08 2.21,-5.06c1.37,-1.95 3.03,-3.42 4.96,-4.39c1.96,-0.96 3.46,-1.62 4.5,-2l-0.00,0.01zm9.46,12.27c0.19,0 0.37,0 0.59,0.03c1.78,0.25 3.37,1.52 4.75,3.81c-0.25,0.17 -0.84,0.56 -1.78,1.14c-0.9,0.56 -2.09,0.78 -3.53,0.62c-1.4,-0.14 -2.09,-1.17 -2.09,-3.08c0.02,-1.66 0.71,-2.51 2.06,-2.53l0,0.01z"/>
		<path class="stroke" d="m77.76,771.40l16.06,-2.71"/>
		<text class="number" y="767.94" x="79.32">1</text>
		<path class="stroke" d="m83.08,809.90c-16.76,0.70 -12.25,-15.69 -11.26,-20.34"/>
		<path class="stroke" d="m103.11,781.41c11.21,0.88 11.52,7.14 12.83,11.89"/>
	</g>
	<g>
		<path d="m104,683.87l-4.65,0.17c-0.56,0.09 -0.68,0.37 -0.37,0.87c0.34,0.62 0.62,2.21 0.81,4.78c0.18,2.56 0.34,5.37 0.46,8.39c0.12,3 0.06,5.65 -0.15,7.96c-0.18,2.27 -0.71,4.46 -1.62,6.59c-0.87,2.12 -2.34,3.89 -4.4,5.31c-2.06,1.37 -4.65,2.5 -7.75,3.37l-0.12,0.39c1.28,1.56 2.15,2.92 2.62,4.12c3.09,-1.45 5.87,-3.14 8.37,-5.08c2.49,-1.96 4.31,-4.31 5.4,-7c1.12,-2.71 1.74,-5.34 1.9,-7.90c0.15,-2.58 0.18,-5.40 0.09,-8.39c-0.09,-3.03 -0.28,-7 -0.56,-11.90l0.28,-0.96c0.21,-0.37 0.12,-0.62 -0.31,-0.75l0,0.02zm-22.71,1c-0.29,0 -0.41,0.16 -0.34,0.53c0.06,0.33 -0.03,1.27 -0.28,2.81c-0.21,1.52 -0.46,4.12 -0.75,7.77c-0.25,3.65 -0.12,7.15 0.4,10.5c0.53,3.31 1.59,4.92 3.15,4.84c1.56,-0.12 2.78,-0.75 3.65,-1.84c0.87,-1.08 1.99,-2.58 3.39,-4.5l-3.28,-2.92c-0.46,1.17 -0.96,2.15 -1.5,2.90c-0.53,0.75 -0.9,1.12 -1.15,1.12c-0.21,-0.03 -0.39,-1.15 -0.56,-3.37c-0.12,-2.25 -0.09,-4.78 0.09,-7.59c0.21,-2.81 0.59,-5.5 1.12,-8.06l0.65,-0.71c0.21,-0.37 0.15,-0.58 -0.15,-0.67l-4.12,-0.71c-0.14,-0.02 -0.24,-0.06 -0.34,-0.06l0.01,-0.02z"/>
		<path class="stroke" d="m76.64,686.91l-0.88,16.66"/>
		<path class="stroke" d="m107.9,684.85l1.18,18.72"/>
		<text class="number" y="691.49" x="69.73">1</text>
		<text class="number" y="690.76" x="110.04">2</text>
	</g>
	<g>
		<path d="m93.16,518.62c-0.07,0 -0.14,0.06 -0.18,0.15l-0.53,0.5c-5.12,0.64 -9.78,1.08 -14,1.27l-0.25,0.56c0.56,1 0.93,2.31 1.09,3.96c4.87,-1.09 8.71,-1.78 11.56,-2.06c-1,4.31 -2.09,8.17 -3.31,11.62c-1.31,0.02 -2.81,0.17 -4.5,0.42c-1.65,0.21 -3.37,0.84 -5.12,1.87c-1.71,1 -3.09,2.31 -4.15,3.96c-1.06,1.62 -1.5,3.33 -1.28,5.12c0.21,1.75 0.74,3.06 1.59,3.92c0.84,0.87 2.03,1.42 3.53,1.67c1.53,0.25 3.06,0 4.59,-0.71c1.56,-0.75 2.96,-2.14 4.25,-4.20c1.31,-2.06 2.65,-4.84 4,-8.37c1.96,0.17 4.06,0.58 6.31,1.25c2.24,0.62 4.18,1.31 5.78,2.06c-0.96,2.37 -2.28,4.56 -3.9,6.52c-1.62,1.96 -3.87,3.78 -6.78,5.46l0,0.42c1.31,1.17 2.37,2.42 3.18,3.75c3.46,-2.96 5.96,-5.56 7.5,-7.75c1.56,-2.17 2.84,-4.34 3.84,-6.5c1.71,0.96 3.59,2.06 5.62,3.31c1.12,-1.92 2.12,-3.31 3.03,-4.15l0,-0.33c-2.59,-1.25 -4.93,-2.31 -7.03,-3.17c0.68,-2.40 1.24,-5.34 1.68,-8.84l0.46,-0.65c0.4,-0.33 0.4,-0.62 0,-0.81l-4.43,-0.92c-0.56,-0.14 -0.81,0 -0.71,0.46c0.12,0.34 0.06,1.59 -0.18,3.75c-0.25,2.12 -0.56,3.92 -0.93,5.42c-1.34,-0.46 -3.09,-0.96 -5.25,-1.5c-2.15,-0.56 -4.46,-0.96 -6.93,-1.25c1.28,-3.5 2.71,-7.58 4.31,-12.27l0.9,-0.56c0.78,-0.37 0.81,-0.78 0.12,-1.21c-1.09,-0.67 -2.28,-1.37 -3.59,-2.06c-0.1,-0.09 -0.2,-0.15 -0.28,-0.15l-0.00,0.02zm-7,19.65c-1.15,2.87 -2.18,5.02 -3.12,6.45c-0.93,1.40 -1.84,2.28 -2.71,2.65c-0.84,0.33 -1.65,0.37 -2.43,0.06c-0.75,-0.34 -1.15,-1.06 -1.21,-2.15c-0.06,-1.08 0.24,-2.14 0.93,-3.17c0.71,-1.02 1.81,-1.87 3.28,-2.52c1.46,-0.68 2.65,-1.06 3.56,-1.12c0.9,-0.08 1.46,-0.14 1.71,-0.17l-0.00,-0.00z"/>
		<path class="stroke" d="m85.77,517.12l16.92,-0.78l-5.9,13.70"/>
		<text class="number" y="514.46" x="84.5">1</text>
		<path class="stroke" d="m77.8,554.89c-16.22,-5.03 -7.89,-14.14 -4.13,-19.32"/>
		<path class="stroke" d="m115.34,525.32l-3.96,11.82"/>
		<text class="number" y="528.65" x="116.2">2</text>
	</g>
	<g>
		<path d="m85.61,436.22l0.46,-0.51c0.15,-0.17 0.32,-0.17 0.51,0c0.93,0.59 2.03,1.45 3.28,2.57c0.4,0.39 0.37,0.70 -0.09,0.92l-1.21,0.51c-2.75,4.31 -4.67,7.37 -5.75,9.17c-1.06,1.81 -1.87,3.73 -2.43,5.76c-0.56,2.03 -0.75,3.98 -0.56,5.85c0.18,1.84 0.73,3.34 1.64,4.5c0.9,1.12 2.23,1.88 3.98,2.28c1.78,0.40 3.59,0.5 5.43,0.28c1.84,-0.20 3.53,-0.91 5.06,-2.09c1.56,-1.18 2.6,-2.92 3.14,-5.20c0.53,-2.28 0.68,-5.32 0.46,-9.13c-0.18,-3.81 -0.93,-8.43 -2.25,-13.87l4.17,-1.25c1.14,3 2.73,6.06 4.73,9.22c2.03,3.12 4.51,6.09 7.45,8.90l-0.04,0.50c-0.78,0.5 -1.98,1.70 -3.6,3.64c-2.43,-3.48 -4.5,-6.53 -6.18,-9.09c0.06,0.64 0.18,2.14 0.37,4.45c0.18,2.31 0.01,4.81 -0.50,7.5c-0.5,2.67 -1.84,5.03 -4.03,7.03c-2.18,1.95 -4.68,3.14 -7.5,3.56c-2.81,0.42 -5.6,0.29 -8.39,-0.42c-2.78,-0.67 -4.85,-2.00 -6.23,-3.97c-1.34,-1.95 -2.06,-4.17 -2.15,-6.60c-0.06,-2.45 0.23,-4.73 0.89,-6.79c0.65,-2.06 1.53,-4.03 2.62,-5.94c1.09,-1.90 2.56,-4.26 4.39,-7.07c-1.78,0.25 -4.85,0.88 -9.23,1.91l-0.93,-4.72c3.87,-0.20 8.04,-0.85 12.51,-1.92"/>
		<path class="stroke" d="m72.96,435.66l14.39,-3.33"/>
		<text class="number" y="432.38" x="72.58">1</text>
		<path class="stroke" d="m96.03,446.44c0,0 -2.08,-14.60 1.14,-15.75c3.23,-1.14 9.46,8.04 11.78,11.16"/>
	</g>
	<g>
		<path d="m78.49,350.07c-0.53,0.03 -0.78,0.25 -0.75,0.64c0.25,0.43 0.21,2.28 -0.06,5.5c-0.25,3.21 -0.43,7.37 -0.59,12.5c-0.14,5.12 -0.09,8.84 0.21,11.14c0.34,2.31 0.99,4.18 1.96,5.59c0.96,1.42 2.12,2.03 3.43,1.81c1.31,-0.18 3.06,-1.56 5.25,-4.12c-1.09,-1.09 -2.18,-2.37 -3.25,-3.87l-0.18,0c-0.75,1.84 -1.31,2.71 -1.68,2.62c-0.34,-0.09 -0.68,-0.90 -1.06,-2.40c-0.34,-1.53 -0.46,-4.98 -0.34,-10.42c0.12,-5.42 0.49,-11.09 1.12,-16.92l0.56,-0.75c0.4,-0.39 0.4,-0.67 0,-0.87l-4.62,-0.43l0,-0.01zm33.5,3.62c-3.37,0.21 -6.59,0.39 -9.65,0.59c-3.03,0.18 -6.34,0.40 -9.92,0.62l0.25,4.06c4.12,-0.46 7.53,-0.74 10.21,-0.84c2.71,-0.09 5.81,-0.14 9.28,-0.17c-0.15,-1.56 -0.21,-2.95 -0.15,-4.25l-0.01,0zm-17.06,18.64l-4.34,0.21c0.24,2.09 0.68,3.89 1.34,5.39c0.65,1.5 1.53,2.70 2.62,3.67c1.09,0.95 2.74,1.67 4.93,2.14c2.18,0.46 6.93,0.62 14.28,0.43c0.09,-1.56 0.28,-3.03 0.56,-4.40l-0.18,-0.25c-6.59,0.5 -10.84,0.62 -12.75,0.34c-1.87,-0.31 -3.37,-1.06 -4.53,-2.21c-1.15,-1.17 -1.81,-2.95 -1.93,-5.37l0,0.01z"/>
		<path class="stroke" d="m74.04,351.42c-2.06,5.73 -0.98,16.78 -0.76,22.94"/>
		<text class="number" y="358.26" x="66.8">1</text>
		<path class="stroke" d="m95.43,350.39l11.5,0.29"/>
		<text class="number" y="346.96" x="100.25">2</text>
		<path class="stroke" d="m90.63,380.47c2.21,8.26 13.27,6.97 18.29,6.92"/>
		<text class="number" y="379.3" x="85.93">3</text>
	</g>
	<g>
		<path d="m102.79,274.42c-5.53,1.03 -10.53,1.73 -15,2.10c-0.34,2 -0.62,3.69 -0.84,5.09c-0.21,1.37 -0.59,3.42 -1.12,6.14c2.65,-1.70 5.12,-2.85 7.4,-3.42c2.31,-0.56 4.28,-0.78 5.95,-0.64c1.65,0.09 3.28,0.57 4.87,1.45c1.59,0.84 2.85,2.10 3.78,3.79c0.96,1.64 1.25,3.56 0.84,5.75c-0.4,2.14 -1.35,3.92 -2.85,5.34c-1.46,1.40 -3.2,2.43 -5.2,3.09c-2,0.68 -4.25,1.09 -6.75,1.21c-2.46,0.12 -5.17,0.13 -8.1,0.03c0,-1.42 -0.25,-2.81 -0.75,-4.12l0.09,-0.50c2.37,0.42 4.59,0.66 6.64,0.69c2.09,0 3.96,-0.16 5.62,-0.50c1.68,-0.34 3.15,-0.93 4.4,-1.78c1.24,-0.84 2.03,-2.03 2.34,-3.56c0.34,-1.53 0.23,-2.81 -0.32,-3.88c-0.56,-1.09 -1.25,-1.92 -2.1,-2.53c-0.81,-0.59 -1.89,-0.89 -3.23,-0.92c-1.34,-0.06 -2.85,0.06 -4.54,0.41c-1.68,0.34 -3.34,1 -4.96,1.95c-1.62,0.96 -3.07,2.10 -4.35,3.42l-4.25,-1.73c1.28,-4.39 2.06,-7.53 2.34,-9.37c0.28,-1.84 0.56,-3.56 0.84,-5.14c-3.46,0.20 -6.26,0.35 -8.39,0.42c-0.18,-1.68 -0.45,-3.09 -0.79,-4.21l0.28,-0.28c3.15,0.28 6.32,0.39 9.51,0.32c0.17,-1.17 0.42,-2.70 0.7,-4.59c0.31,-1.89 0.35,-3.17 0.14,-3.79c0.03,-0.67 0.32,-0.88 0.89,-0.60l4.45,0.65c0.37,0.20 0.39,0.5 0.04,0.84l-0.75,0.78c-0.46,2.53 -0.85,4.68 -1.17,6.46c3.74,-0.37 8.15,-1.21 13.21,-2.53l1.12,4.12"/>
		<path class="stroke" d="m70.27,269.38l11.5,0.29"/>
		<text class="number" y="265.93" x="75.09">1</text>
		<path class="stroke" d="m94.83,258.14l-2.52,10.98"/>
		<text class="number" y="263.24" x="97.35">2</text>
		<path class="stroke" d="m100.01,280.76c0,0 10.43,0.82 13.35,5.63c2.92,4.79 -1.04,10.66 -2.92,14.07"/>
	</g>
	<g>
		<path d="m82.72,181.96c0.03,-0.48 0.25,-0.73 0.65,-0.75l5.29,0.56c0.37,0.18 0.39,0.45 0.09,0.79l-0.7,0.89c-0.4,5.75 -0.67,10.64 -0.79,14.67c-0.09,4 -0.09,7.03 0,9.14c0.09,2.09 0.45,3.62 1.07,4.59c0.62,0.96 1.25,1.65 1.92,2.06c0.65,0.40 1.57,0.71 2.76,0.93c1.21,0.20 2.67,0.14 4.35,-0.18c1.68,-0.37 3.46,-1.28 5.34,-2.70c1.87,-1.46 3.71,-3.90 5.53,-7.31c1.71,1.37 3.25,2.34 4.64,2.95c-1.78,2.56 -3.65,4.75 -5.62,6.59c-1.93,1.84 -4.29,3.21 -7.07,4.12c-2.75,0.89 -5.32,1.17 -7.73,0.78c-2.37,-0.37 -4.18,-1.00 -5.43,-1.92c-1.25,-0.92 -2.25,-2.20 -3,-3.84c-0.75,-1.65 -1.18,-3.56 -1.31,-5.71c-0.12,-2.17 -0.1,-5.39 0.04,-9.64c0.15,-4.24 0.26,-7.87 0.32,-10.87c0.09,-2.99 -0.03,-4.71 -0.37,-5.15"/>
		<path class="stroke" d="m79.15,182.24c-0.6,5.94 -0.78,16.78 -0.76,22.94"/>
		<text class="number" y="189.08" x="71.91">1</text>
	</g>
	<g>
		<path d="m95.14,96.61c0.53,2.03 1.03,3.81 1.5,5.34c2.96,-0.53 5.82,-1.25 8.57,-2.2l1.68,3.75c-2.78,0.81 -5.75,1.48 -8.9,2.01c0.15,0.4 0.45,1.00 0.89,1.82c0.43,0.81 1.04,1.9 1.82,3.28c3.81,-0.59 7.4,-1.53 10.78,-2.81l1.64,3.93c-3.15,0.89 -6.67,1.64 -10.54,2.2c1.31,2.06 3.28,4.6 5.9,7.64l-3.7,3.03c-1.93,-0.78 -3.43,-1.28 -4.5,-1.53c-1.03,-0.28 -2.37,-0.51 -4.03,-0.70c-1.65,-0.17 -3.15,-0.20 -4.5,-0.09c-1.34,0.12 -2.56,0.39 -3.65,0.84c-1.06,0.40 -1.85,0.95 -2.39,1.64c-0.53,0.65 -0.78,1.5 -0.75,2.53c0.06,1 0.45,1.90 1.17,2.71c0.71,0.81 1.87,1.39 3.46,1.73c1.62,0.31 3.82,0.45 6.60,0.42c2.81,-0.06 5.64,-0.25 8.53,-0.56l0.09,0.51c-0.39,0.70 -0.75,2.00 -1.03,3.89c-3.31,0.17 -6.75,0.14 -10.31,-0.09c-3.56,-0.20 -6.07,-0.7 -7.54,-1.45c-1.43,-0.75 -2.56,-1.67 -3.37,-2.81c-0.78,-1.14 -1.25,-2.50 -1.45,-4.06c-0.15,-1.59 0.17,-2.96 0.98,-4.12c0.81,-1.14 1.82,-2.03 3.04,-2.62c1.21,-0.62 2.60,-1.07 4.17,-1.35c1.56,-0.28 3.2,-0.39 4.92,-0.31c1.75,0.06 4.1,0.34 7.07,0.89c-1.25,-1.90 -2.32,-3.73 -3.23,-5.48c-5.06,0.56 -11.25,1 -18.56,1.31c-0.06,-1.39 -0.25,-2.7 -0.56,-3.89l0.14,-0.32c6.65,0.18 12.42,0.03 17.29,-0.46c-0.53,-1.09 -1,-2.04 -1.4,-2.85c-0.4,-0.84 -0.75,-1.57 -1.03,-2.2c-3.4,0.39 -7.43,0.71 -12.09,0.92c-0.03,-1.12 -0.25,-2.42 -0.65,-3.92l0.28,-0.23c4.28,0.06 7.98,-0.06 11.1,-0.37c-0.15,-0.43 -0.48,-1.42 -0.98,-2.95c-0.46,-1.56 -0.87,-2.51 -1.21,-2.85c-0.25,-0.34 -0.14,-0.59 0.32,-0.75l4.17,-0.75c0.43,0.03 0.54,0.25 0.32,0.7l-0.09,0.7"/>
		<path class="stroke" d="m76.02,100.25c0.73,0 12.83,-1.18 12.83,-1.18"/>
		<path class="stroke" d="m75.38,110.06c0.73,0 17.73,-1.28 17.73,-1.28"/>
		<path class="stroke" d="m96.38,90.07l4.72,8.26"/>
		<path class="stroke" d="m79.41,120.89c0,0 -4.38,1.64 -4.27,4.86c0.11,3.2 3.22,6.06 4.72,7.95"/>
		<text class="number" y="101.46" x="70.67">1</text>
		<text class="number" y="112.31" x="68.79">2</text>
		<text class="number" y="93.74" x="101.34">3</text>
	</g>
	<g>
		<path d="m75.51,16.61c-0.53,0.03 -0.78,0.25 -0.75,0.65c0.25,0.43 0.18,2.28 -0.18,5.5c-0.37,3.21 -0.5,6.4 -0.37,9.56c0.15,3.15 0.56,6.06 1.18,8.71c0.65,2.65 1.59,4.71 2.81,6.18c1.25,1.43 2.59,2.06 4.03,1.87c1.43,-0.21 2.59,-1.21 3.5,-2.96c0.89,-1.75 2.03,-4.15 3.37,-7.21c-1.25,-0.93 -2.56,-1.93 -3.93,-3.03l-0.37,0c-0.75,3.37 -1.34,5.43 -1.78,6.18c-0.43,0.71 -0.96,1 -1.59,0.87c-0.62,-0.12 -1.18,-0.87 -1.68,-2.25c-0.5,-1.37 -0.87,-4 -1.15,-7.9c-0.28,-3.93 0,-8.59 0.87,-13.93l0.56,-0.65c0.37,-0.37 0.34,-0.62 -0.09,-0.78l-4.4,-0.81l-0.03,0zm28.28,2.59l-3.62,2.75c2.65,2.65 4.56,5.37 5.71,8.12c1.18,2.71 2.15,6.43 2.9,11.15c1.68,-0.71 3.34,-1.18 4.93,-1.4l0.21,-0.34c-0.93,-4.25 -2.18,-7.96 -3.75,-11.18c-1.53,-3.21 -3.65,-6.24 -6.4,-9.09l0.02,-0.01z"/>
		<path class="stroke" d="m69.35,15.14c-0.91,4.15 0.5,12.93 1.05,17.19"/>
		<text class="number" y="21.15" x="62.78">1</text>
		<path class="stroke" d="m108.71,18.17l7.96,13.27"/>
		<text class="number" y="21.15" x="112.78">2</text>
	</g>
	<g>
		<path d="m161.53,685.82c-0.10,0 -0.2,0.06 -0.31,0.15l-0.25,0.39c-3.75,0.5 -7.09,0.87 -10.06,1.09c-2.95,0.20 -5.42,0.27 -7.37,0.20l-0.20,0.56c0.48,1.21 0.81,2.56 0.95,4c4.68,-0.75 9.37,-1.42 14.06,-2.06c-6.03,7.53 -12.75,14.75 -20.17,21.65l0,0.56c1.14,0.5 2.28,1.56 3.37,3.17c1.09,-1.27 2.68,-3.12 4.78,-5.5c1.96,-1.56 3.87,-2.87 5.71,-3.92c1.87,-1.08 3.92,-1.77 6.17,-2.06c2.24,-0.27 4.28,0 6.12,0.84c1.84,0.81 3.12,2.02 3.81,3.62c0.67,1.56 0.89,3.02 0.64,4.39c-0.20,1.37 -0.81,2.59 -1.78,3.65c-0.92,1.06 -1.95,1.89 -3.09,2.52c-1.03,-1.89 -2.12,-3.33 -3.25,-4.31c-1.09,-0.95 -2.56,-1.77 -4.40,-2.39c-1.84,-0.62 -3.5,-0.62 -4.95,-0.03c-1.43,0.56 -2.59,1.67 -3.46,3.40c-0.84,1.70 -0.87,3.39 -0.09,5.02c0.78,1.62 2.18,2.71 4.21,3.31c2.03,0.59 4.39,0.71 7.09,0.34c2.67,-0.34 5.12,-1.15 7.34,-2.40c2.24,-1.27 3.87,-2.67 4.87,-4.25c1.03,-1.56 1.68,-3.20 1.93,-4.95c0.24,-1.75 -0.09,-3.67 -1.03,-5.81c-0.93,-2.15 -2.87,-3.84 -5.81,-5.03c-2.90,-1.20 -5.46,-1.62 -7.68,-1.25c-2.17,0.37 -4.06,0.90 -5.59,1.59c2.89,-3.25 6.64,-7.42 11.21,-12.56l0.95,-0.37c0.64,-0.37 0.71,-0.78 0.14,-1.21c-1.34,-0.87 -2.53,-1.62 -3.56,-2.25c-0.09,-0.09 -0.23,-0.15 -0.34,-0.15l0.02,0.02zm-7.68,29.75c0.18,0 0.35,0.02 0.56,0.06c1.65,0.31 2.78,0.87 3.37,1.65c0.62,0.75 1.28,1.89 1.92,3.45c-0.64,0.12 -1.59,0.25 -2.78,0.37c-1.17,0.09 -2.53,-0.06 -4.06,-0.45c-1.53,-0.42 -2.06,-1.46 -1.59,-3.06c0.41,-1.42 1.25,-2.09 2.56,-2.03l0.00,0.01z"/>
		<path class="stroke" d="m144.22,684.40l17.11,-1.17"/>
		<text class="number" y="682.37" x="143.8">1</text>
		<path class="stroke" d="m137.73,708.16c0,0 -5.15,9.84 -2.70,11.67c2.45,1.82 7.90,-1.95 11.03,-3.78"/>
		<path class="stroke" d="m169.98,700.15c3.15,2.17 7.39,4.06 8.42,9.04c1.03,4.97 -2.75,9.27 -4.23,11.48"/>
	</g>
	<g>
		<path d="m158.5,601.25c-0.25,0.07 -0.36,0.32 -0.34,0.75c0.37,0.37 0.62,1.46 0.78,3.31c0.14,1.84 0.23,3.31 0.28,4.37c-2.62,0.42 -5.39,1.5 -8.34,3.17c-2.93,1.67 -5.90,4.90 -8.90,9.65c0,-1.65 0.06,-3.56 0.18,-5.67c0.12,-2.15 0.42,-4.87 0.89,-8.17l0.65,-0.81c0.37,-0.40 0.31,-0.68 -0.15,-0.84l-4.25,-0.67c-0.56,-0.28 -0.87,-0.09 -0.89,0.58c0.20,0.62 0.20,1.87 -0.03,3.75c-0.25,1.84 -0.43,4.03 -0.53,6.53c-0.06,2.5 -0.06,5.12 -0.03,7.87c0.03,2.75 0.64,6.17 1.87,10.31l4.59,-2.25c-0.5,-1.31 -0.92,-2.52 -1.28,-3.62c0.21,-1.65 1.39,-3.96 3.56,-6.92c2.15,-2.96 4.37,-5.12 6.62,-6.46c2.28,-1.33 4.34,-2.20 6.18,-2.64c0,1.14 -0.03,3.06 -0.06,5.75c-0.03,2.67 -0.62,5.95 -1.78,9.83c-1.43,-0.58 -2.87,-2.12 -4.31,-4.62l-3.09,3.12c1.68,2.59 3.68,4.37 5.96,5.34c-1.21,2.5 -2.90,4.67 -5.06,6.56l0,0.45c1.20,0.5 2.45,1.37 3.75,2.59c2.37,-2.71 4.17,-5.59 5.45,-8.59c1.43,0.18 3.31,0.15 5.62,-0.08c2.31,-0.28 4.48,-1.28 6.56,-3c2.06,-1.75 3.42,-3.71 4.12,-5.92c0.71,-2.21 0.84,-4.46 0.34,-6.75c-0.45,-2.28 -1.84,-4.31 -4.12,-6.06c-2.28,-1.78 -5.39,-2.67 -9.37,-2.71c-0.06,-2.02 -0.18,-4.12 -0.37,-6.27l0.56,-0.93c0.23,-0.37 0.14,-0.62 -0.28,-0.75l-4.5,-0.12c-0.11,-0.00 -0.21,-0.01 -0.31,0l0.02,-0.03zm5,11.75c2.37,0.06 4.34,0.62 5.92,1.65c1.59,1.02 2.56,2.33 2.90,3.95c0.37,1.62 0.34,3.34 -0.09,5.12c-0.43,1.75 -1.56,3.25 -3.37,4.5c-1.81,1.21 -3.34,1.81 -4.62,1.81c-1.28,-0.02 -2.14,-0.06 -2.62,-0.12c1.12,-4.5 1.70,-8.12 1.78,-10.83c0.09,-2.71 0.12,-4.75 0.09,-6.09l0,0.01z"/>
		<path class="stroke" d="m135.24,605.72l-0.87,15.92"/>
		<text class="number" y="611.72" x="127.27">1</text>
		<path class="stroke" d="m171.91,606.35c0,0 6.14,2.13 8.34,7.51c2.19,5.37 0.89,10.33 0.41,13.96"/>
		<path class="stroke" d="m166.59,595.10l-0.66,10.76"/>
		<text class="number" y="598.56" x="159.76">2</text>
	</g>
	<g>
		<path d="m148.74,516.37c-0.42,0 -0.62,0.25 -0.53,0.71c0.24,0.45 0.37,2.77 0.34,6.95c-2.87,0.06 -6.14,-0.02 -9.84,-0.27l-0.14,0.42c0.28,1.21 0.45,2.52 0.56,3.96c3.06,-0.12 6.17,-0.24 9.37,-0.40c-0.03,2.09 -0.09,4.03 -0.17,5.81c-0.21,-0.06 -0.68,-0.15 -1.43,-0.25c-0.75,-0.09 -1.70,0.06 -2.87,0.46c-1.12,0.39 -2.12,1.06 -3.03,1.95c-0.89,0.90 -1.53,2.15 -1.87,3.71c-0.31,1.52 -0.37,3 -0.15,4.40c0.21,1.37 0.74,2.42 1.56,3.17c0.81,0.70 1.74,1.14 2.81,1.31c1.06,0.12 2.06,0 3.03,-0.34c-0.31,1.46 -0.15,2.87 0.45,4.21c0.62,1.33 1.81,2.45 3.53,3.33c1.71,0.87 4.09,1.28 7.15,1.21c3.09,-0.03 5.59,-0.17 7.45,-0.42c1.90,-0.25 3.62,-0.78 5.15,-1.62c1.56,-0.81 2.56,-1.75 3.03,-2.81c0.45,-1.06 0.48,-2.46 0.06,-4.21c-0.40,-1.77 -0.90,-4.37 -1.46,-7.75l-4.67,0.90c0.89,2.92 1.48,5.02 1.78,6.31c0.31,1.27 0.37,2.17 0.17,2.70c-0.14,0.53 -0.64,1.03 -1.53,1.5c-0.84,0.46 -2.09,0.81 -3.75,1.03c-1.64,0.17 -3.70,0.27 -6.14,0.27c-2.43,0 -4.06,-0.14 -4.87,-0.5c-0.81,-0.33 -1.37,-0.92 -1.71,-1.75c-0.34,-0.81 -0.42,-1.83 -0.25,-3.08c0.21,-1.28 0.62,-3.06 1.17,-5.34c0.59,-2.27 0.65,-4 0.18,-5.17c0.17,-2.06 0.34,-5.17 0.46,-9.33c3.98,-0.25 7.78,-0.65 11.37,-1.25l-0.68,-4.09c-4,0.84 -7.53,1.40 -10.59,1.65c0.03,-1.71 0.06,-3.59 0.09,-5.59l0.5,-0.78c0.31,-0.37 0.24,-0.62 -0.17,-0.70l-4.34,-0.37l-0.01,0.04zm20.75,10.37l-2.45,3.46c3.59,1.92 6.73,4.56 9.45,7.87c1.21,-1.59 2.31,-2.84 3.31,-3.71l0,-0.27c-2.70,-2.28 -6.14,-4.71 -10.31,-7.34zm-23.25,9.78c0.16,0 0.35,-0.01 0.53,0c0.71,0.06 1.15,0.37 1.34,0.92c-0.21,3.39 -0.75,5.5 -1.62,6.27c-0.87,0.78 -1.70,1.09 -2.53,0.90c-0.81,-0.17 -1.28,-0.65 -1.39,-1.37c-0.12,-0.71 -0.12,-1.62 0,-2.71c0.12,-1.09 0.37,-1.90 0.78,-2.46c0.39,-0.56 0.89,-0.95 1.5,-1.20c0.44,-0.21 0.89,-0.32 1.39,-0.34l0,-0.01z"/>
		<path class="stroke" d="m134.78,520.17l9.87,0"/>
		<text class="number" y="517.69" x="132.6">1</text>
		<path class="stroke" d="m157,509.46l-0.73,10.59"/>
		<text class="number" y="514.66" x="160.01">2</text>
		<path class="stroke" d="m141.21,550.94c0,0 -5.17,-1.77 -6.62,-4.85c-1.45,-3.09 1.53,-7.21 2.64,-9.36"/>
		<path class="stroke" d="m176.91,552.92l-0.66,-9.81"/>
		<path class="stroke" d="m172.03,524.09l9.28,6.71"/>
		<text class="number" y="523.88" x="174.21">3</text>
	</g>
	<g>
		<path d="m150.44,432.57l-2.15,3.75c4.34,2.31 9.21,4.17 14.62,5.64c0.53,-1.67 1.09,-3.12 1.67,-4.34c-5.39,-1.03 -10.12,-2.70 -14.14,-5.06zm0.03,11.25c-0.39,0.03 -0.56,0.20 -0.46,0.56c0.12,0.42 0.06,1.31 -0.17,2.64c-0.21,1.31 -0.28,2.62 -0.18,3.93c0.09,1.31 1.06,2.56 2.87,3.70c1.81,1.14 3.53,2.28 5.17,3.37c1.65,1.09 2.71,2.42 3.18,4.03c0.48,1.56 0.39,2.84 -0.28,3.84c-0.68,1 -1.68,1.59 -3,1.78c-1.28,0.14 -2.5,0 -3.68,-0.45c-1.14,-0.5 -2.31,-1.53 -3.42,-3.09c-1.06,1.03 -2.18,1.92 -3.40,2.75l-0.06,0.37c1.43,1.42 2.87,2.56 4.28,3.34c1.40,0.81 3.06,1.20 4.96,1.25c1.89,0.06 3.59,-0.28 5.09,-1.03c1.53,-0.75 2.71,-1.84 3.56,-3.31c0.87,-1.45 1.09,-3.37 0.62,-5.70c-0.42,-2.37 -1.67,-4.28 -3.70,-5.71c-2.03,-1.45 -3.81,-2.62 -5.37,-3.42c-1.56,-0.84 -2.37,-1.78 -2.40,-2.81c0,-1.03 0.15,-2.31 0.43,-3.84l0.59,-0.67c0.37,-0.37 0.34,-0.64 -0.09,-0.84l-4.5,-0.65l-0.02,-0.01zm17.62,8.56l-2.70,3.28c3.53,2.67 6.81,6.34 9.81,10.96c1.84,-1.75 3.12,-2.84 3.87,-3.31l-0.03,-0.42c-3.31,-3.70 -6.95,-7.20 -10.92,-10.5l-0.01,0zm-21.37,3.14c-3.62,3.18 -7.34,6.56 -11.18,10.15c1.59,1.28 2.71,2.42 3.40,3.42c3.89,-4.39 7.59,-7.92 11.06,-10.56l-3.28,-3.03l0,0.00z"/>
		<path class="stroke" d="m150.3,429.23l14.00,4.57"/>
		<text class="number" y="428.52" x="153.1">1</text>
		<path class="stroke" d="m158.2,442.73c0,0 -1.73,3.98 -0.28,5.89c1.42,1.91 3.62,3.09 5.67,4.64"/>
		<text class="number" y="449.3" x="161.66">2</text>
		<path class="stroke" d="m142.34,454.84l-8.76,7.22"/>
		<text class="number" y="453.65" x="135.95">3</text>
		<path class="stroke" d="m171.55,449.89l10.84,10.25"/>
		<text class="number" y="451.74" x="174.94">4</text>
	</g>
	<g>
		<path d="m156.14,349.45c-0.35,0 -0.55,0.16 -0.62,0.53c0.34,0.56 0.21,2.53 -0.37,5.89c-0.70,0.12 -1.92,0.34 -3.62,0.64c-1.65,0.28 -3.18,0.90 -4.62,1.84c-1.42,0.90 -2.59,1.71 -3.45,2.43c-0.71,-1.84 -1.39,-3.81 -2.03,-5.87l0.28,-0.93c0.14,-0.42 -0.03,-0.62 -0.59,-0.59l-4.18,0.92c-0.45,0.06 -0.56,0.34 -0.28,0.84c0.40,0.31 0.90,1.34 1.5,3.09c0.62,1.70 1.40,3.56 2.31,5.56c-1.37,1.64 -2.5,3.67 -3.37,6.06c-0.84,2.34 -1.25,4.53 -1.18,6.56c0.06,2.03 0.40,3.62 1.03,4.78c0.64,1.12 1.59,2.03 2.78,2.70c1.17,0.64 2.31,0.96 3.39,0.96c1.12,-0.03 2.31,-0.43 3.53,-1.21c1.25,-0.81 2.40,-1.89 3.46,-3.31c0.39,0.64 0.81,1.28 1.25,1.89c1.17,-1.39 2.37,-2.56 3.56,-3.45l0,-0.28c-0.71,-0.70 -1.43,-1.48 -2.15,-2.37c1.53,-2.73 2.71,-5.39 3.56,-7.95c0.84,-2.56 1.64,-5.56 2.42,-9c0.87,0.03 2.09,0.12 3.62,0.31c1.56,0.17 3.06,0.89 4.53,2.14c1.49,1.20 2.56,2.64 3.18,4.31c0.64,1.64 0.92,3.28 0.81,4.87c-0.12,1.56 -0.56,3.14 -1.28,4.78c-0.39,-0.20 -1.28,-0.62 -2.64,-1.25c-1.34,-0.64 -2.78,-0.98 -4.31,-1.03c-1.5,-0.03 -2.78,0.42 -3.84,1.42c-1.03,1 -1.70,2.40 -2.06,4.18c-0.31,1.78 0.18,3.31 1.5,4.62c1.31,1.28 2.99,1.92 5.06,1.95c2.06,0.03 3.71,-0.5 4.96,-1.62c1.23,-1.12 2.12,-2 2.64,-2.59c1.12,0.95 2.40,2.14 3.81,3.53c0.90,-1.42 1.90,-2.78 3,-4.03c-1.59,-1.14 -3.06,-2.14 -4.37,-3c1.12,-2.21 1.74,-4.46 1.87,-6.71c0.15,-2.28 -0.12,-4.39 -0.87,-6.39c-0.71,-1.98 -2.17,-3.87 -4.37,-5.59c-2.15,-1.70 -4.21,-2.67 -6.21,-2.92c-2,-0.28 -3.39,-0.45 -4.20,-0.53c0.23,-1.23 0.48,-2.56 0.78,-3.92l0.70,-0.75c0.31,-0.31 0.28,-0.56 -0.09,-0.78l-4.39,-0.71c-0.14,-0.03 -0.28,-0.06 -0.40,-0.06l-0.03,0.01zm-1.75,10.06c-0.53,2.39 -1.15,4.75 -1.87,7.06c-0.67,2.28 -1.5,4.37 -2.42,6.28c-1.78,-2.37 -3.46,-5.14 -5.06,-8.37c1.31,-1.28 2.73,-2.34 4.34,-3.17c1.62,-0.87 3.31,-1.46 5.03,-1.78l-0.00,-0.01zm-12.06,8.42c1.48,2.96 2.67,5.09 3.53,6.37c0.87,1.25 1.45,2.09 1.81,2.56c-1.31,1.90 -2.40,3.03 -3.31,3.34c-0.90,0.31 -1.65,0.34 -2.21,0.12c-0.56,-0.25 -1.03,-0.71 -1.42,-1.39c-0.37,-0.71 -0.56,-1.78 -0.56,-3.21c0,-1.45 0.24,-2.92 0.75,-4.37c0.53,-1.45 0.99,-2.59 1.43,-3.39l-0.00,-0.01zm20.53,9c1.34,0 2.98,0.62 4.92,1.87c-0.5,0.65 -1.17,1.34 -2.06,2.09c-0.84,0.75 -2,1.06 -3.42,0.89c-1.40,-0.14 -2,-1.03 -1.78,-2.59c0.24,-1.56 1.03,-2.31 2.34,-2.28l0,0.00z"/>
		<path class="stroke" d="m141.24,347.69l4.93,8.07"/>
		<text class="number" y="346.48" x="136.76">1</text>
		<path class="stroke" d="m165.38,343.06l-2.29,9.59"/>
		<text class="number" y="344.67" x="166.41">2</text>
		<path class="stroke" d="m141.50,387.69c0,0 -7.22,-0.88 -8.44,-4.79c-1.08,-3.45 -0.08,-7.79 0.27,-10.69"/>
		<path class="stroke" d="m176.12,361.31c0,0 2.99,2.73 3.33,5.73c0.33,2.98 -1.41,5.94 -2.34,8.31"/>
	</g>
	<g>
		<path d="m137.3,275.45c7.78,-1.59 14,-2.70 18.64,-3.37c4.68,-0.67 8.5,-0.73 11.43,-0.14c2.92,0.56 5.17,1.64 6.75,3.28c1.56,1.59 2.59,3.53 3.09,5.81c0.5,2.25 0.35,4.54 -0.42,6.89c-0.78,2.34 -2.07,4.38 -3.89,6.13c-1.78,1.71 -4.15,3.03 -7.12,3.93c-2.95,0.87 -7.78,1.50 -14.48,1.91c-0.25,-1.81 -0.59,-3.42 -1.06,-4.87l0.23,-0.32c6.14,0.15 10.45,-0.09 12.89,-0.75c2.46,-0.64 4.39,-1.59 5.81,-2.81c1.43,-1.25 2.45,-2.75 3.04,-4.5c0.59,-1.78 0.70,-3.37 0.37,-4.78c-0.34,-1.42 -1,-2.69 -1.96,-3.79c-0.92,-1.12 -2.45,-1.91 -4.53,-2.38c-2.09,-0.45 -5.07,-0.39 -8.95,0.17c-3.84,0.59 -9.92,2.14 -18.23,4.64c-0.39,-1.87 -0.98,-3.39 -1.73,-4.54l0.14,-0.51"/>
		<path class="stroke" d="m137.92,272.45l16.48,-2.92"/>
		<text class="number" y="269.11" x="136.59">1</text>
	</g>
	<g>
		<path d="m160.05,178.75c-0.56,0.09 -0.81,0.37 -0.75,0.81c0.31,0.45 0.48,1.06 0.59,1.78c0.12,0.67 0.28,2.46 0.46,5.34c-6.75,0.18 -13.96,0.12 -21.68,-0.14l0,0.45c0.31,1.09 0.5,2.43 0.59,4c7.71,-0.31 14.78,-0.56 21.18,-0.75c-0.03,1.62 -0.09,3.43 -0.18,5.46c-1.20,-0.68 -2.67,-0.99 -4.42,-0.96c-1.71,0.03 -3.15,0.43 -4.28,1.25c-1.09,0.81 -1.90,1.87 -2.43,3.18c-0.5,1.31 -0.59,2.75 -0.28,4.28c0.34,1.5 1.09,2.84 2.21,4.06c1.12,1.18 2.28,1.89 3.45,2.15c1.18,0.21 2.25,0.18 3.21,-0.09c0.95,-0.28 1.70,-0.56 2.25,-0.87c-0.12,0.62 -0.39,1.45 -0.87,2.52c-0.43,1.06 -1.31,2.18 -2.59,3.37c-1.28,1.18 -3.25,2.31 -5.92,3.37l0,0.31c1.14,1.37 2.09,2.75 2.84,4.12c2.84,-1.87 4.90,-3.42 6.15,-4.67c1.25,-1.21 2.28,-2.74 3.09,-4.59c0.84,-1.84 1.37,-3.87 1.59,-6.09c0.21,-2.20 0.28,-3.78 0.17,-4.70c-0.06,-0.96 -0.20,-1.78 -0.45,-2.40c0.17,-1.87 0.31,-3.56 0.37,-5.06c0.09,-1.53 0.12,-3.09 0.12,-4.71c5.12,-0.14 10.20,-0.34 15.25,-0.53l-0.65,-4.03c-4.64,0.40 -9.53,0.71 -14.59,0.93c-0.03,-1.74 -0.06,-3.71 -0.12,-5.90l0.37,-0.92c0.34,-0.43 0.28,-0.71 -0.18,-0.84l-4.5,-0.09l0.01,-0.01zm-4.12,19.28c0.42,0.02 0.87,0.12 1.34,0.28c0.95,0.31 1.62,0.67 1.92,1.14c0.31,0.42 0.53,0.92 0.65,1.5c-0.25,2.03 -0.62,3.37 -1.09,4.03c-0.45,0.62 -1.09,1 -1.89,1.12c-0.78,0.12 -1.62,-0.03 -2.5,-0.45c-0.87,-0.43 -1.5,-1.24 -1.87,-2.46c-0.34,-1.20 -0.25,-2.31 0.28,-3.25c0.53,-0.95 1.17,-1.56 1.92,-1.78c0.39,-0.09 0.78,-0.14 1.21,-0.12l0.01,-0.01z"/>
		<path class="stroke" d="m136.16,183.59c0.83,0 17.09,0.2 17.09,0.2"/>
		<text class="number" y="180.84" x="138.75">1</text>
		<path class="stroke" d="m150.34,211.58c0,0 -5.17,-2.35 -5.73,-6.03c-0.55,-3.68 2.2,-6.66 3.53,-8.68"/>
		<path class="stroke" d="m168.00,172.96l0.42,10.93"/>
		<text class="number" y="178.97" x="170.87">2</text>
	</g>
	<g>
		<path d="m160.36,96.18c0.03,-0.43 0.31,-0.62 0.84,-0.56l4.31,2.00c0.49,0.25 0.46,0.51 -0.09,0.79l-0.84,0.37c-3.37,4.62 -6.78,8.43 -10.21,11.43c-3.42,3 -5.25,4.73 -5.48,5.2c-0.17,0.43 -0.2,0.85 -0.03,1.26c0.14,0.4 1.92,1.98 5.28,4.73c3.39,2.75 7.71,6.39 12.93,10.92l0,0.37c-1.06,0.93 -2.31,2.35 -3.75,4.26c-5,-6 -9.43,-10.65 -13.31,-13.96c-3.84,-3.31 -5.81,-5.25 -5.95,-5.85c-0.09,-0.59 -0.06,-1.2 0.04,-1.82c0.12,-0.65 2,-2.62 5.62,-5.9c3.62,-3.31 6.31,-6.21 8.10,-8.71c1.81,-2.49 2.64,-4.01 2.53,-4.54"/>
		<path class="stroke" d="m158.64,93.34l-12.95,13.83"/>
		<text class="number" y="95.8" x="149.16">1</text>
	</g>
	<g>
		<path d="m149.97,11.33l-1.31,4.12c5.06,1.43 10.81,2.56 17.20,3.34c0.24,-1.62 0.49,-2.93 0.78,-3.93l-0.17,-0.37c-5.62,-0.34 -11.12,-1.4 -16.5,-3.15l0,-0.01zm8,12.34c-1.39,0.05 -2.79,0.21 -4.14,0.5c-2.68,0.53 -6.28,1.43 -10.81,2.71l-0.14,0.46c0.87,1.34 1.59,2.81 2.12,4.37c4.03,-1.99 7.15,-3.24 9.40,-3.75c2.28,-0.49 4.48,-0.59 6.62,-0.28c2.14,0.31 3.62,1.03 4.42,2.18c0.81,1.15 1.31,2.4 1.46,3.71c0.18,1.31 -0.06,3.03 -0.71,5.15c-0.62,2.12 -1.62,3.87 -3.03,5.28c-1.37,1.4 -3.20,2.59 -5.53,3.56c-2.28,0.96 -4.59,1.62 -6.89,1.93l0,0.46c0.87,1.15 1.56,2.56 2.06,4.25c3.31,-1.06 5.99,-2.12 8.06,-3.21c2.09,-1.06 4.12,-2.65 6.06,-4.78c1.93,-2.12 3.21,-4.46 3.84,-7c0.64,-2.56 0.84,-4.78 0.59,-6.65c-0.25,-1.9 -1.09,-3.74 -2.56,-5.53c-1.43,-1.81 -3.62,-2.87 -6.53,-3.21c-1.45,-0.17 -2.87,-0.24 -4.28,-0.18l0.00,0.03z"/>
		<path class="stroke" d="m149.88,8.38l17.06,3.53"/>
		<text class="number" y="6.6" x="151.01">1</text>
		<path class="stroke" d="m137.74,24.48l14.57,-3.95"/>
		<text class="number" y="20.88" x="137.62">2</text>
	</g>
	<g>
		<path class="old" d="m223.92,768.40c-0.10,0 -0.2,0.02 -0.31,0.12l-0.62,0.71c-3.59,0.5 -6.17,0.77 -7.78,0.87c-1.56,0.08 -3.25,0.12 -5.06,0.06l-0.12,0.37c0.67,1.31 1.06,2.45 1.12,3.45c4.46,-0.75 7.87,-1.31 10.21,-1.67c-3.65,3.92 -9,8.53 -16.03,13.78l0,0.37c1.20,0.92 2.20,1.96 3.03,3.12c1.20,-1.34 2.89,-2.96 5.03,-4.87l-0.62,0.65c1.24,-1 2.74,-1.87 4.5,-2.62c1.74,-0.77 3.53,-1.20 5.31,-1.31c1.81,-0.12 3.31,0.03 4.53,0.46c1.23,0.42 2.14,1.09 2.67,1.96c0.53,0.83 0.71,1.89 0.56,3.14c-0.14,1.21 -0.62,2.21 -1.37,3c-0.71,0.78 -1.5,1.37 -2.34,1.78c-0.81,0.37 -1.46,0.62 -1.96,0.75c0.28,-0.53 0.40,-1.17 0.37,-1.92c0,-0.78 -0.40,-1.62 -1.21,-2.53c-0.81,-0.89 -1.96,-1.42 -3.46,-1.62c-1.5,-0.21 -2.78,-0.12 -3.87,0.31c-1.09,0.42 -1.95,1.28 -2.59,2.5c-0.59,1.17 -0.62,2.31 -0.12,3.40c0.48,1.08 1.37,1.92 2.62,2.5c-1.37,0.92 -3.37,2.27 -5.96,4.02c-2.59,1.75 -5.95,3.67 -10.14,5.84l0,0.37c1.03,1.21 1.87,2.40 2.56,3.56c3.78,-2.71 7.06,-5.03 9.81,-6.92c3.46,-1.12 5.46,-1.25 6,-0.40c0.56,0.84 0.90,1.68 1.03,2.56c0.12,0.87 0.12,1.96 0,3.28l4.12,0c0.12,-1.25 0.73,-2.37 1.89,-3.37c1.17,-1.03 2.31,-1.81 3.37,-2.37c1.09,-0.59 2.31,-1 3.62,-1.17c1.31,-0.21 2.48,-0.09 3.59,0.37c1.09,0.45 1.78,1.06 2.03,1.77c0.25,0.67 0.25,1.12 0.03,1.28c-0.21,0.14 -0.81,0.37 -1.78,0.64c-0.96,0.25 -2.39,0.40 -4.34,0.5l0,0.46c0.56,0.84 0.98,2 1.31,3.46c3.56,-0.87 5.87,-1.5 6.95,-1.87c1.09,-0.34 1.87,-0.84 2.34,-1.53c0.45,-0.67 0.39,-1.77 -0.21,-3.27c-0.62,-1.53 -1.95,-2.84 -4,-3.90c-2.03,-1.09 -4.09,-1.46 -6.17,-1.12c-2.09,0.33 -3.87,0.89 -5.37,1.64c-1.5,0.71 -2.89,1.65 -4.20,2.84c-0.71,-2.37 -2.37,-3.5 -4.96,-3.40c1.28,-0.87 2.37,-1.67 3.28,-2.39c0.62,0 1.65,-0.03 3.09,-0.12c1.42,-0.12 3.03,-0.68 4.81,-1.65c1.78,-0.95 3.12,-2.06 4,-3.31c0.87,-1.25 1.34,-2.56 1.42,-3.92c0.09,-1.37 -0.20,-2.81 -0.92,-4.28c-0.71,-1.45 -2.21,-2.58 -4.53,-3.37c-2.28,-0.81 -4.28,-1.08 -5.96,-0.83c-1.64,0.25 -2.92,0.56 -3.87,0.89c2.06,-1.95 4.53,-4.33 7.39,-7.08l1.15,-0.37c0.84,-0.31 0.89,-0.71 0.14,-1.21c-1.46,-0.87 -2.68,-1.62 -3.64,-2.25c-0.10,-0.09 -0.23,-0.12 -0.34,-0.12l-0.03,0zm-5.28,20.92c1.03,-0.12 1.78,0.15 2.28,0.81c0.53,0.65 0.12,1.53 -1.21,2.62c-0.53,-0.06 -1.12,-0.14 -1.78,-0.25c-0.62,-0.08 -0.89,-0.58 -0.87,-1.52c0.06,-0.96 0.59,-1.53 1.59,-1.65l-0.00,0z"/>
		<path class="stroke" d="m208.75,767.46l14.72,-1.46"/>
		<text class="number" y="765.48" x="208.12">1</text>
		<path class="stroke" d="m229.78,777.28c0,0 4.94,0.66 6.75,3.64c1.82,2.95 0.68,6.89 0.44,9.09"/>
		<path class="stroke" d="m200.66,802.65c0,0 -6.64,3.73 -4.12,6.77c2.52,3.01 11.83,0.23 15.57,-0.71"/>
		<path class="stroke" d="m238.2,795.81c4.94,-0.12 7.56,4.25 9.49,6.54"/>
	</g>
	<g>
		<path d="m243.79,713.75c-1.20,2.31 -2.34,4.16 -3.42,5.57c-1.03,1.39 -2.39,2.39 -4.12,2.95c-1.68,0.56 -3.15,0.34 -4.40,-0.60c-1.25,-0.95 -1.84,-2.41 -1.81,-4.34c0.06,-1.92 0.14,-4.84 0.28,-8.71c0.14,-3.87 0.25,-6.62 0.31,-8.25c0.09,-1.62 -0.14,-2.62 -0.75,-3c-0.56,-0.39 -1.37,-0.53 -2.42,-0.41c-1.06,0.09 -2.73,0.78 -5.00,2.09c-2.28,1.28 -5.17,3.75 -8.67,7.40c0.03,2.06 0.06,4.56 0.09,7.5c0.06,2.92 0.34,6.46 0.84,10.59l-0.14,0.41c-1.40,0.08 -3.00,0.34 -4.82,0.78c-0.09,-4.20 -0.14,-9 -0.17,-14.33c-1.90,2.42 -3.96,5.25 -6.18,8.42l-0.37,-0.04c-0.87,-1.14 -2.00,-2.31 -3.42,-3.45c3.14,-3.46 5.89,-6.45 8.2,-8.95c0.65,-1.25 1.24,-2.5 1.78,-3.75c0,-1.03 0,-2.51 0,-4.45c-2.28,0.62 -4.56,1.39 -6.84,2.28c-0.39,-1.42 -0.96,-2.77 -1.67,-4.02l0.09,-0.41c3.17,-0.40 6.00,-0.85 8.48,-1.35c0.03,-2.02 0.09,-4.08 0.18,-6.17c0.09,-2.08 0.00,-3.32 -0.23,-3.70c-0.14,-0.56 0,-0.81 0.46,-0.75l4.64,0.42c0.42,0.14 0.42,0.39 0,0.75l-0.51,0.69c-0.14,2.5 -0.25,4.90 -0.31,7.21c1.06,0.37 2.17,0.90 3.37,1.59c0.43,0.33 0.34,0.69 -0.28,1.07l-1.45,0.83c-0.53,1.31 -1,2.42 -1.39,3.37c2.17,-2.02 4.56,-3.82 7.12,-5.39c2.59,-1.56 4.56,-2.42 5.89,-2.62c1.37,-0.17 2.96,0.10 4.78,0.89c1.81,0.78 2.74,2.28 2.81,4.5c0.09,2.17 0.03,5.22 -0.14,9.14c-0.15,3.87 -0.23,6.57 -0.23,8.09c0,1.5 0.42,2.21 1.26,2.15c0.84,-0.06 1.62,-0.66 2.34,-1.82c0.70,-1.15 1.34,-2.59 1.87,-4.34l4.03,2.14"/>
		<path class="stroke" d="m218.39,681.90l1.03,10.20"/>
		<text class="number" y="683.21" x="219.61">1</text>
		<path class="stroke" d="m195.42,694.07l9.93,-1.09"/>
		<text class="number" y="690.7" x="193.7">2</text>
		<path class="stroke" d="m231.2,689.91c0,0 4.3,0.51 6.03,3.52c1.72,3.01 0.95,7.65 0.88,9.86"/>
		<path class="stroke" d="m197.47,714.09c0,0 -3.84,8.03 -1.36,9.91c3.5,2.67 7.7,-1 10.97,-2.95"/>
	</g>
	<g>
		<path d="m223.41,517.08c-0.35,0 -0.55,0.16 -0.62,0.53c0.34,0.56 0.09,2.56 -0.70,5.95c-1.31,0.12 -2.90,0.37 -4.78,0.75c-1.84,0.34 -3.43,0.87 -4.78,1.59c-1.31,0.70 -2.15,1.20 -2.53,1.5c-0.43,-1.40 -0.87,-2.96 -1.31,-4.67l0.25,-0.92c0.18,-0.53 0,-0.74 -0.56,-0.65l-4.03,0.56c-0.45,0.06 -0.56,0.34 -0.28,0.84c0.34,0.31 0.74,1.42 1.25,3.37c0.53,1.92 0.96,3.37 1.28,4.31c-0.31,0.33 -0.92,1.06 -1.84,2.17c-0.87,1.08 -1.71,2.70 -2.56,4.83c-0.84,2.09 -1.25,4.34 -1.21,6.75c0.03,2.40 0.34,4.17 0.93,5.34c0.62,1.12 1.56,2.02 2.81,2.75c1.25,0.67 2.42,0.96 3.56,0.81c1.14,-0.17 2.31,-0.62 3.5,-1.28c1.21,-0.67 2.49,-1.89 3.84,-3.67c0.46,0.67 0.93,1.37 1.40,2.06c1.67,-1.62 2.92,-2.70 3.75,-3.25l0,-0.45c-0.81,-0.81 -1.56,-1.65 -2.28,-2.53c1.48,-2.45 2.78,-5 3.84,-7.62c1.09,-2.65 2.09,-5.48 3,-8.5c0.42,0.06 1.24,0.25 2.45,0.53c1.21,0.25 2.53,0.92 3.93,2.06c1.42,1.12 2.49,2.62 3.14,4.5c0.68,1.87 0.99,3.62 0.93,5.27c-0.06,1.62 -0.53,3.34 -1.37,5.12c-0.84,1.78 -2.28,3.17 -4.34,4.25c-2.06,1.06 -4.75,1.71 -8.06,1.92l0,0.56c0.78,1.43 1.28,2.75 1.53,3.93c4.46,-0.78 7.84,-2.03 10.12,-3.71c2.31,-1.71 3.99,-3.67 5.06,-5.92c1.06,-2.28 1.62,-4.42 1.64,-6.46c0.06,-2.06 -0.28,-4.17 -1.03,-6.33c-0.71,-2.18 -2.18,-4.15 -4.39,-5.90c-2.18,-1.73 -4.03,-2.73 -5.53,-3.03c-1.45,-0.31 -2.45,-0.52 -2.95,-0.62c0.37,-1.33 0.74,-2.73 1.12,-4.20l0.75,-0.78c0.43,-0.39 0.34,-0.64 -0.28,-0.75l-4.25,-0.89c-0.14,-0.03 -0.28,-0.06 -0.39,-0.06l0,-0.03zm-2.37,10.37c-0.67,2.40 -1.45,4.75 -2.37,7c-0.87,2.21 -1.78,4.15 -2.70,5.84c-1.37,-2.17 -2.40,-3.96 -3.09,-5.37c-0.67,-1.43 -1.20,-2.65 -1.59,-3.62c0.81,-0.62 1.96,-1.34 3.5,-2.18c1.53,-0.83 3.62,-1.39 6.28,-1.64l-0.02,-0.02zm-12.78,7.12c1.53,3.21 2.68,5.53 3.46,6.92c0.78,1.37 1.31,2.31 1.62,2.78c-1.5,2.02 -2.78,3.31 -3.84,3.83c-1.06,0.5 -1.89,0.59 -2.53,0.28c-0.62,-0.31 -1.06,-0.81 -1.34,-1.5c-0.25,-0.67 -0.34,-1.96 -0.28,-3.81c0.06,-1.87 0.37,-3.48 0.92,-4.87c0.59,-1.37 1.24,-2.59 1.96,-3.65l0.01,0z"/>
		<path class="stroke" d="m208.87,513.12l3.33,10.20"/>
		<text class="number" y="514.1" x="210.07">1</text>
		<path class="stroke" d="m235.10,510.71l-4.67,10.60"/>
		<text class="number" y="516.5" x="236.61">2</text>
		<path class="stroke" d="m205.42,555.27c0,0 -5.67,-1.03 -7.28,-4.78c-1.61,-3.73 0.2,-7.64 0.83,-10.19"/>
		<path class="stroke" d="m241.45,533.52c0,0 3.40,3.21 3.03,7.40c-0.35,4.17 -2.85,6.94 -4.49,9.34"/>
	</g>
	<g>
		<path d="m216.17,441.20c1.73,0 3.98,1.51 6.75,4.54c2.78,3.03 9.42,8.41 19.95,16.16l-0.03,0.56c-1.18,0.90 -2.46,2.29 -3.84,4.17c-10,-9.28 -16.04,-15.01 -18.14,-17.20c-2.06,-2.20 -3.53,-3.31 -4.40,-3.31c-0.84,0 -1.53,0.38 -2.06,1.16c-0.53,0.75 -4.31,4.42 -11.34,11.06c-1.12,-1.45 -2.39,-2.64 -3.79,-3.56l0,-0.37c7.15,-5.37 11.43,-8.92 12.84,-10.64c1.42,-1.70 2.78,-2.56 4.06,-2.56"/>
		<path class="stroke" d="m198,450.03l11.95,-10.63"/>
		<text class="number" y="443.62" x="196.44">1</text>
	</g>
	<g>
		<path d="m210.60,346.67c-0.23,0.07 -0.26,0.32 -0.14,0.75c0.25,0.37 0.31,1.56 0.20,3.59c-0.09,2.03 -0.14,3.92 -0.17,5.67c-3.06,0.75 -6.25,1.28 -9.59,1.59l-0.09,0.40c0.71,1.25 1.28,2.59 1.68,4.03c2.53,-0.84 5.17,-1.68 7.95,-2.56c0,0.62 0,1.70 0,3.31c-0.84,1.81 -1.81,3.67 -2.87,5.59c-2.31,2.53 -4.92,5.56 -7.87,9.12c1.53,0.95 2.75,2.12 3.62,3.45l0.28,0.06c2.37,-3.67 4.65,-6.89 6.84,-9.62c0,0.84 0,2.56 0,5.12c0.03,2.56 0.09,5.93 0.18,10.14c1.81,-0.42 3.39,-0.67 4.81,-0.78l0.15,-0.42c-0.5,-4.12 -0.78,-7.70 -0.84,-10.78c-0.03,-3.06 -0.06,-5.73 -0.09,-8.06c2.93,-2.95 5.53,-5.06 7.78,-6.31c2.28,-1.23 4.12,-1.95 5.56,-2.14c1.46,-0.20 2.74,0 3.84,0.67c1.12,0.67 1.92,1.75 2.39,3.14c0.45,1.39 0.78,2.89 0.92,4.53c0.15,1.59 0.21,2.96 0.18,4.09c-0.03,1.09 -0.09,1.93 -0.18,2.53c-1.87,-1.03 -3.75,-1.67 -5.62,-1.95c-1.84,-0.31 -3.45,-0.14 -4.84,0.5c-1.34,0.62 -2.28,1.53 -2.84,2.70c-0.53,1.18 -0.71,2.31 -0.56,3.37c0.18,1.06 0.74,2.09 1.68,3.06c0.92,0.95 2.17,1.67 3.78,2.14c1.59,0.45 3.42,0.37 5.5,-0.28c2.09,-0.64 3.64,-1.78 4.71,-3.37c1.06,1.06 2.12,2.25 3.17,3.56c1.06,-1.37 2.18,-2.59 3.34,-3.62l-0.15,-0.46c-1.55,-1.20 -3.08,-2.34 -4.58,-3.37c0.31,-1.12 0.48,-2.53 0.56,-4.25c0.09,-1.70 0.09,-3.53 -0.03,-5.39c-0.12,-1.87 -0.68,-3.84 -1.68,-5.89c-1,-2.09 -2.45,-3.56 -4.37,-4.42c-1.89,-0.87 -3.81,-1.15 -5.75,-0.84c-1.93,0.31 -4.09,1.12 -6.46,2.46c-2.34,1.34 -4.45,2.84 -6.37,4.45l-0.06,-0.62c0.56,-0.84 1.28,-1.87 2.12,-3.09l1.59,-0.84c0.65,-0.37 0.74,-0.71 0.28,-1.06c-1.15,-0.67 -2.21,-1.28 -3.18,-1.78c-0.14,-0.12 -0.31,-0.12 -0.46,0l-0.17,0.31c0.06,-2.15 0.14,-4.37 0.28,-6.65l0.56,-0.78c0.28,-0.31 0.21,-0.56 -0.14,-0.70l-4.53,-0.31c-0.11,-0.01 -0.23,-0.01 -0.31,0l-0.01,0zm17.68,28.34c1.53,0 3.42,0.81 5.67,2.39c-0.64,1.28 -1.64,2.14 -2.95,2.62c-1.31,0.46 -2.46,0.5 -3.5,0.12c-1.03,-0.40 -1.78,-0.93 -2.21,-1.62c-0.39,-0.70 -0.37,-1.48 0.06,-2.31c0.43,-0.81 1.40,-1.20 2.93,-1.20z"/>
		<path class="stroke" d="m196.98,375.51c0,0 -3.84,8.03 -1.36,9.92c3.5,2.66 7.70,-1 10.97,-2.96"/>
		<path class="stroke" d="m217.71,341.66l1.04,10.19"/>
		<text class="number" y="344.14" x="220.4">1</text>
		<path class="stroke" d="m197.92,354.78l9.93,-1.10"/>
		<text class="number" y="351.41" x="195.32">2</text>
		<path class="stroke" d="m233.8,353.54c0,0 4.34,0.04 7.00,3.17c2.25,2.63 1.89,8.06 2.02,11.62"/>
	</g>
	<g>
		<path d="m237.85,267.76c0.34,1.39 0.82,2.79 1.45,4.17l-0.45,0.31c-2.09,0.18 -4.25,0.39 -6.46,0.60c-2.28,1.17 -4.53,2.70 -6.78,4.54c-2.21,1.81 -4.00,3.85 -5.39,6.13c-1.37,2.28 -2,4.64 -1.87,7.07c0.14,2.39 1.03,4.32 2.62,5.76c1.59,1.42 3.25,2.34 5.00,2.70c1.74,0.34 4.46,0.39 8.15,0.14l0.14,0.13c-0.34,1.45 -0.67,3.17 -0.98,5.14c-1.84,0.06 -3.87,-0.00 -6.09,-0.22c-2.17,-0.21 -4.20,-0.84 -6.09,-1.87c-1.87,-1.06 -3.48,-2.51 -4.82,-4.35c-1.31,-1.84 -2.09,-4.14 -2.39,-6.89c-0.25,-2.73 0.34,-5.38 1.78,-7.91c1.46,-2.53 2.98,-4.49 4.54,-5.90c1.56,-1.42 2.95,-2.63 4.17,-3.59c-1.12,0.12 -3.59,0.42 -7.39,0.92c-3.81,0.45 -8.70,1.19 -14.67,2.19c-0.31,-1.73 -0.78,-3.28 -1.39,-4.63l0.18,-0.45c2.25,0 4.7,-0.10 7.34,-0.32c2.65,-0.23 6.95,-0.73 12.89,-1.45c5.93,-0.70 11.45,-1.45 16.54,-2.25"/>
		<path class="stroke" d="m200.36,269.14l12.69,-1.23"/>
		<text class="number" y="266.2" x="199.55">1</text>
		<path class="stroke" d="m234.53,264.89c0,0 10.51,-0.58 11.48,2.5c0.94,3.09 -5.01,7.5 -7.65,9.85"/>
	</g>
	<g>
		<path d="m242.34,193.12l0.37,4.03l-0.23,0.23c-3.59,0.28 -7.17,0.53 -10.73,0.78c-0.03,4.21 -0.32,6.98 -0.89,8.29c-0.53,1.28 -1.48,2.09 -2.85,2.42c-1.34,0.34 -3.81,0.2 -7.45,-0.42c0.31,-1.68 0.48,-3.03 0.51,-4.03l0.28,-0.23c1.59,0.53 2.78,0.84 3.56,0.92c0.81,0.06 1.34,0 1.64,-0.17c0.31,-0.18 0.56,-0.76 0.75,-1.73c0.17,-1 0.28,-2.59 0.31,-4.82c-1.67,0.12 -3.56,0.25 -5.62,0.37c-2.06,0.12 -4.39,0.28 -6.98,0.46c-0.03,0.87 -0.06,2.33 -0.09,4.39c0,2.06 0.04,4.03 0.14,5.95c0.12,1.89 0.42,3.28 0.92,4.17c0.53,0.84 1.48,1.35 2.85,1.53c1.37,0.18 2.81,0.28 4.31,0.28c1.53,-0.03 3.50,-0.09 5.95,-0.17c2.46,-0.09 5.03,-0.35 7.67,-0.79l0.42,0.28c-0.46,1.56 -0.82,3.12 -1.07,4.68c-1.31,0.09 -2.48,0.17 -3.50,0.23c-1.03,0.03 -2.73,0.06 -5.10,0.09c-2.34,0.03 -4.84,-0.03 -7.5,-0.17c-2.64,-0.14 -4.45,-0.53 -5.39,-1.12c-0.89,-0.59 -1.75,-1.56 -2.53,-2.90c-0.75,-1.34 -1.18,-3.12 -1.31,-5.34c-0.12,-2.25 -0.17,-4.43 -0.14,-6.56c0.03,-2.15 0.03,-3.56 0.03,-4.21c-3.09,0.21 -6.28,0.45 -9.59,0.7c-0.12,-1.39 -0.31,-2.84 -0.56,-4.31l0,-0.28c3.53,0 6.95,-0.03 10.26,-0.14c0,-1.42 0.03,-3.28 0.09,-5.53c0.06,-2.24 -0.06,-3.59 -0.42,-4.03c0.03,-0.49 0.25,-0.74 0.64,-0.75l4.73,0.37c0.37,0.15 0.39,0.42 0.09,0.79l-0.46,0.78c-0.14,3.06 -0.28,5.78 -0.37,8.15c2.37,-0.09 4.56,-0.20 6.60,-0.32c2.06,-0.14 4.03,-0.31 5.95,-0.45c0,-1.59 -0.01,-3.60 -0.04,-6.04c-0.03,-2.45 -0.23,-3.95 -0.59,-4.5c-0.06,-0.39 0.14,-0.62 0.64,-0.64l4.12,0.23c0.40,0.12 0.48,0.34 0.23,0.64l-0.42,0.84c0.06,3.45 0.09,6.5 0.09,9.09c3.5,-0.31 7.03,-0.67 10.64,-1.07"/>
		<path class="stroke" d="m194.07,191.82l12.69,-1.23"/>
		<text class="number" y="189.49" x="193.05">1</text>
		<path class="stroke" d="m235.27,180.62l0,10.14"/>
		<text class="number" y="182.39" x="236.54">2</text>
		<path class="stroke" d="m219.27,180.62l0,10.14"/>
		<text class="number" y="182.53" x="213.17">3</text>
	</g>
	<g>
		<path d="m229.23,95.86c-0.31,0.04 -0.37,0.25 -0.20,0.62c0.23,0.53 0.45,2.14 0.62,4.84c0.14,2.65 0.24,4.34 0.28,5.06c-4.14,0.31 -8.67,0.28 -13.56,-0.09l-0.12,0.4c0.31,1.28 0.45,2.62 0.5,4c3.95,-0.03 8.42,-0.21 13.39,-0.53c0.06,0.87 0.09,1.59 0.09,2.12c0.03,0.53 0.06,1.84 0.06,3.93c0,2.06 -0.15,4.00 -0.43,5.84c-0.25,1.81 -0.78,3.37 -1.59,4.67c-0.78,1.31 -1.75,2.43 -2.89,3.37c-1.12,0.89 -2.84,1.75 -5.15,2.5l0,0.5c1.06,1.34 1.90,2.64 2.53,3.89c2.28,-1.28 4.12,-2.53 5.5,-3.71c1.40,-1.17 2.59,-2.59 3.59,-4.25c0.98,-1.67 1.67,-3.64 2.03,-5.89c0.34,-2.28 0.45,-4.46 0.39,-6.56c-0.06,-2.09 -0.12,-4.34 -0.17,-6.75c2.84,-0.31 5.37,-0.71 7.56,-1.21l-1.31,-3.93c-2,0.53 -4.12,0.93 -6.37,1.25c-0.09,-2.4 -0.20,-5.21 -0.34,-8.43l0.34,-0.87c0.21,-0.37 0.12,-0.59 -0.28,-0.65l-4.03,-0.09c-0.14,-0.02 -0.3,-0.04 -0.39,-0.03l-0.03,-0.01zm-24.39,2.4c-0.53,0.03 -0.75,0.25 -0.65,0.65c0.25,0.42 0.18,2.14 -0.17,5.14c-0.37,3 -0.62,6.43 -0.75,10.28c-0.09,3.84 0.06,6.93 0.46,9.31c0.39,2.37 1.06,4.28 1.95,5.71c0.90,1.39 1.96,2.03 3.18,1.87c1.20,-0.17 2.95,-1.67 5.20,-4.5c-1.06,-1.03 -2.12,-2.14 -3.17,-3.39l-0.15,0c-0.87,1.70 -1.5,2.45 -1.87,2.25c-0.37,-0.21 -0.71,-1.06 -1.03,-2.5c-0.31,-1.46 -0.46,-4.28 -0.46,-8.43c0.03,-4.15 0.49,-8.84 1.37,-14.06l0.67,-0.75c0.43,-0.39 0.43,-0.67 0,-0.84l-4.59,-0.75l0,0.01z"/>
		<path class="stroke" d="m199.83,99.92c-2.55,4.96 -1.10,13.64 -0.22,18.61"/>
		<text class="number" y="102.02" x="193.32">1</text>
		<path class="stroke" d="m216.02,103.31l11.03,0"/>
		<text class="number" y="101.11" x="215.26">2</text>
		<path class="stroke" d="m237.49,89.72l-0.31,12.07"/>
		<text class="number" y="95.7" x="239.93">3</text>
	</g>
	<g>
		<path d="m212.73,10.75l-1.31,3.9c4.06,1.18 8.93,2.03 14.62,2.53c0,-1.46 0.12,-2.87 0.40,-4.21c-5.15,-0.12 -9.71,-0.87 -13.71,-2.21l0,-0.01zm13.40,10.68c-0.10,0 -0.23,0.06 -0.34,0.15l-0.39,0.46c-8,0.84 -14.39,1.28 -19.17,1.31l-0.21,0.56c0.62,1.34 0.99,2.71 1.14,4.15c4.40,-0.78 9.78,-1.43 16.09,-1.96c-7.06,7.06 -14.62,14.31 -22.65,21.75l0,0.46c1.37,1.06 2.56,2.31 3.56,3.71c0.90,-1.21 2.43,-3.03 4.59,-5.4c2.14,-2.4 4.06,-4.43 5.67,-6.12c2.81,-1.81 4.71,-2.84 5.71,-3.09c0.98,-0.25 1.78,-0.28 2.34,-0.06c0.56,0.21 0.84,1.21 0.87,3c0.03,1.75 0.12,3.5 0.25,5.25c0.12,1.75 0.43,3.03 0.93,3.81c0.53,0.81 1.70,1.28 3.59,1.43c1.89,0.18 3.67,0.28 5.34,0.25c1.65,-0.03 3.78,-0.06 6.37,-0.06c0.23,-1.59 0.62,-3.25 1.12,-5l-0.28,-0.46c-3.62,0.68 -6.43,1.03 -8.43,1.03c-2,-0.03 -3.28,-0.21 -3.84,-0.53c-0.53,-0.34 -0.81,-1.09 -0.87,-2.25c-0.03,-1.18 -0.12,-2.68 -0.25,-4.5c-0.12,-1.84 -0.43,-3.12 -0.93,-3.87c-0.5,-0.75 -1.17,-1.28 -2.09,-1.59c-0.87,-0.34 -1.59,-0.43 -2.14,-0.28c-0.56,0.15 -0.96,0.28 -1.18,0.37c2.43,-2.43 5.21,-5.18 8.34,-8.25l0.84,-0.28c0.59,-0.4 0.62,-0.81 0.09,-1.21c-1.09,-0.99 -2.34,-1.87 -3.75,-2.62c-0.10,-0.09 -0.2,-0.15 -0.31,-0.15l0,-0.01z"/>
		<path class="stroke" d="m211.75,6.73l14.72,3.09"/>
		<text class="number" y="8.98" x="206.72">1</text>
		<path class="stroke" d="m202.75,20.26l11.03,0"/>
		<text class="number" y="18.52" x="200.1">2</text>
		<path class="stroke" d="m231.00,19.38c0.51,0.1 4.15,1.56 4.25,4.16c0.10,2.6 -2.56,4.63 -3.85,6.24"/>
		<path class="stroke" d="m198.73,44.93c0,0 -2.2,7.54 0.36,9.71c2.57,2.17 8.88,-0.42 12.51,-1.61"/>
	</g>
	<g>
		<path d="m300.20,782.90l0.23,-0.59c0.12,-0.59 0.38,-0.68 0.78,-0.28l3.93,3.59c0.06,0.46 -0.20,0.76 -0.79,0.89c-0.59,-0.12 -2.17,0.25 -4.78,1.12c-2.59,0.87 -5.45,2.06 -8.57,3.56c0.03,0.53 0.06,1.40 0.09,2.62c0.06,1.17 0.10,3.12 0.14,5.81l-4.5,0c0.20,-2.25 0.31,-4.41 0.31,-6.50c-2.17,1.14 -3.78,2.13 -4.78,2.94c-0.95,0.81 -1.75,1.71 -2.38,2.71c-0.62,1 -0.78,1.97 -0.45,2.95c0.31,0.92 0.81,1.57 1.5,1.91c0.67,0.31 1.81,0.53 3.41,0.70c1.62,0.12 3.48,0.14 5.62,0.03c2.15,-0.08 5.65,-0.39 10.5,-0.92l0.32,0.28c-0.31,1.17 -0.54,2.67 -0.70,4.5c-5.42,0 -9.31,0 -11.66,0c-2.31,0.02 -4.57,-0.14 -6.79,-0.51c-2.20,-0.34 -3.81,-0.92 -4.78,-1.78c-0.95,-0.87 -1.63,-2.01 -2.01,-3.41c-0.37,-1.42 -0.16,-2.87 0.60,-4.31c0.81,-1.42 2.01,-2.78 3.60,-4.03c1.59,-1.25 4.20,-2.87 7.87,-4.87c-0.03,-0.39 -0.10,-1.07 -0.22,-2.00c-0.09,-0.93 -1.06,-1.48 -2.90,-1.64c-1.84,-0.17 -4.56,0.83 -8.19,3.08c-1.31,1.5 -2.76,3.10 -4.35,4.82c-0.92,-1.17 -1.95,-2.26 -3.04,-3.22l-0.03,-0.41c2.53,-1.75 4.69,-3.64 6.50,-5.67c1.81,-2.02 3.23,-3.94 4.26,-5.76c-2.92,0.34 -6.04,0.67 -9.32,0.98c-0.12,-1.31 -0.37,-2.59 -0.75,-3.84l0.17,-0.27c4.21,-0.03 8.17,-0.23 11.85,-0.60c0.37,-0.81 0.81,-1.84 1.31,-3.13c0.53,-1.31 0.64,-2.24 0.32,-2.81c-0.03,-0.34 0.17,-0.56 0.60,-0.65l5.01,0.78c0.37,0.12 0.37,0.32 0,0.60l-0.84,0.64c-0.64,1.46 -1.28,2.79 -1.87,3.98c3.17,-0.43 6.14,-1.03 8.85,-1.78l0.89,3.78c-3.03,0.59 -6.92,1.18 -11.67,1.78c-1.17,2.12 -2.54,4.17 -4.07,6.17c2.28,-1.15 4.46,-1.57 6.56,-1.26c2.12,0.31 3.57,1.87 4.35,4.67c2.64,-1.33 5.92,-2.89 9.84,-4.67"/>
		<path class="stroke" d="m266.09,772.14l13.32,-0.83"/>
		<text class="number" y="769.68" x="264.91">1</text>
		<path class="stroke" d="m292.95,761.09l-3.33,9.98"/>
		<text class="number" y="766.12" x="294.93">2</text>
		<path class="stroke" d="m264.88,786.46c0,0 -3,9.51 -0.5,11.5c2.5,1.97 8.01,-1.88 10.51,-3.54"/>
		<path class="stroke" d="m306.25,789.04l-11.92,4.34"/>
		<text class="number" y="797.62" x="302.14">3</text>
	</g>
	<g>
		<path d="m290.54,687.53l0.23,-0.41c0.20,-0.17 0.42,-0.17 0.64,0c1.03,0.62 2.20,1.37 3.56,2.25c0.56,0.42 0.51,0.83 -0.14,1.20l-0.97,0.37c-4.56,5.12 -8.29,9.31 -11.20,12.56c1.53,-0.68 3.39,-1.21 5.57,-1.59c2.20,-0.37 4.78,0.03 7.67,1.26c2.92,1.17 4.89,2.84 5.85,5.01c0.95,2.14 1.26,4.44 0.89,6.88c-0.34,2.43 -1.31,4.53 -2.90,6.28c-1.56,1.71 -4,2.90 -7.31,3.56c-3.31,0.67 -7.45,0.89 -12.45,0.59c-0.14,-1.56 -0.51,-2.95 -1.07,-4.20l0,-0.17c4.31,0.45 7.73,0.58 10.26,0.37c2.53,-0.25 4.60,-0.87 6.23,-1.87c1.62,-1 2.56,-2.54 2.84,-4.64c0.31,-2.09 0.12,-3.89 -0.56,-5.39c-0.67,-1.52 -1.94,-2.70 -3.78,-3.51c-1.84,-0.83 -3.89,-1.12 -6.14,-0.83c-2.25,0.27 -4.31,0.95 -6.17,2.06c-1.84,1.06 -3.75,2.37 -5.70,3.92c-2.09,2.37 -3.68,4.20 -4.78,5.47c-1.09,-1.62 -2.20,-2.67 -3.37,-3.17l0,-0.56c7.43,-6.90 14.17,-14.12 20.20,-21.65c-4.67,0.62 -9.37,1.31 -14.06,2.06c-0.14,-1.42 -0.48,-2.75 -0.98,-3.97l0.23,-0.56c1.92,0.06 4.38,-0.01 7.35,-0.22c2.95,-0.21 6.31,-0.57 10.06,-1.07"/>
		<path class="stroke" d="m273.13,685.76l17.69,-1.45"/>
		<text class="number" y="683.86" x="272.18">1</text>
		<path class="stroke" d="m267.32,707.59c0,0 -3.51,8.65 -1.23,10.87c3.23,3.13 9.57,-1.57 13.84,-4.79"/>
		<path class="stroke" d="m302.26,704.59c0,0 3.76,3.64 4.26,7.70c0.48,4.04 -2.01,8.23 -2.87,10.29"/>
	</g>
	<g>
		<path d="m282.64,600.12c-0.45,0.06 -0.62,0.31 -0.5,0.75c0.34,0.42 0.53,2.21 0.59,5.37c0.06,3.15 0.14,6.03 0.28,8.59c0.14,2.52 0.28,6.12 0.34,10.77c-1.37,-0.15 -3.28,-0.23 -5.67,-0.25c-2.37,0 -4.34,0.40 -5.92,1.21c-1.56,0.77 -2.65,1.95 -3.25,3.56c-0.59,1.58 -0.75,2.92 -0.5,4.02c0.25,1.06 0.78,2.09 1.62,3.06c0.84,1 2.14,1.67 3.92,2.09c1.81,0.39 3.28,0.58 4.39,0.52c1.12,-0.06 2.34,-0.27 3.62,-0.62c1.31,-0.33 2.43,-1 3.40,-1.95c1,-0.96 1.62,-2.03 1.87,-3.17c0.28,-1.15 0.45,-2.40 0.56,-3.75c4.62,1.56 8.64,3.70 12.06,6.42c1.23,-1.96 2.28,-3.37 3.12,-4.17l0,-0.56c-4.39,-2.12 -7.78,-3.53 -10.14,-4.25c-2.37,-0.71 -4.03,-1.18 -4.92,-1.40c-0.06,-4.84 -0.12,-8.62 -0.20,-11.34c5.62,-0.45 10.17,-1.06 13.70,-1.75l-1.25,-3.95c-3.70,0.95 -7.92,1.58 -12.62,1.87c-0.06,-2.42 -0.12,-5.48 -0.17,-9.15l0.62,-0.87c0.34,-0.37 0.28,-0.62 -0.14,-0.75l-4.78,-0.27l0.00,-0.02zm-3.95,28.62c1.64,0 3.17,0.15 4.59,0.46c-0.06,1.5 -0.25,2.75 -0.53,3.70c-0.28,0.96 -0.78,1.68 -1.5,2.15c-0.71,0.46 -1.59,0.78 -2.65,0.92c-1.06,0.15 -2.39,0.03 -4.03,-0.33c-1.59,-0.37 -2.42,-1.34 -2.53,-2.90c-0.06,-1.59 0.59,-2.65 2,-3.21c1.43,-0.56 3,-0.83 4.65,-0.81l0,0.01z"/>
		<path class="stroke" d="m290.45,606.59l13.32,-1.87"/>
		<text class="number" y="604.71" x="290.55">1</text>
		<path class="stroke" d="m278.60,598.82l1.03,14.13"/>
		<text class="number" y="605.63" x="271.77">2</text>
		<path class="stroke" d="m270.54,640.15c0,0 -5.59,-1.03 -6.34,-4.89c-0.75,-3.84 1.98,-7.95 3.32,-10.51"/>
		<path class="stroke" d="m296.85,625.90l8.67,3.67"/>
	</g>
	<g>
		<path d="m290.97,524.32l0.88,3.84c-2.56,0.37 -5.92,0.56 -10.12,0.56c-0.28,1.52 -0.50,2.88 -0.69,4.07c-0.18,1.14 -0.34,2.14 -0.46,3c0.46,0.02 1.62,0.06 3.46,0.13c1.84,0.03 4.59,-0.20 8.25,-0.70l0.84,4.03c-3.87,0.42 -6.87,0.59 -9,0.51c-2.12,-0.12 -3.48,-0.20 -4.07,-0.22c-0.17,1.42 -0.35,2.97 -0.51,4.63c-0.14,1.62 -0.00,3.04 0.42,4.26c0.42,1.21 1.32,2.15 2.67,2.81c1.34,0.62 3.06,0.97 5.14,1.07c2.09,0.09 3.98,-0.21 5.70,-0.92c1.73,-0.75 2.89,-2.34 3.45,-4.78c0.56,-2.45 0.34,-5.25 -0.64,-8.33c1.42,-0.17 2.95,-0.54 4.59,-1.07c0.95,3.81 1.14,7.27 0.51,10.40c-0.62,3.08 -2.35,5.39 -5.20,6.92c-2.84,1.56 -5.84,2.19 -9,1.91c-3.14,-0.25 -5.67,-0.96 -7.59,-2.15c-1.87,-1.14 -3.13,-2.66 -3.79,-4.53c-0.64,-1.90 -0.87,-3.71 -0.64,-5.42c0.21,-1.71 0.45,-3.41 0.70,-5.10c-0.67,-0.08 -1.56,-0.22 -2.62,-0.41c-1.06,-0.17 -2.62,-0.78 -4.68,-1.82l1.87,-3.45c2,1 3.38,1.57 4.16,1.72c0.81,0.12 1.42,0.21 1.82,0.28c0.09,-0.75 0.23,-1.73 0.41,-2.95c0.18,-1.21 0.39,-2.51 0.60,-3.89c-2.20,-0.06 -4.63,-0.14 -7.25,-0.22c0.06,-1.15 -0.04,-2.46 -0.32,-3.92l0.28,-0.28c2.89,0.34 5.56,0.57 7.95,0.70c0.17,-1.03 0.45,-2.46 0.84,-4.31c0.37,-1.87 0.39,-3.03 0.04,-3.46c0.03,-0.5 0.25,-0.75 0.64,-0.75l4.59,0.75c0.40,0.21 0.43,0.47 0.09,0.78l-0.75,0.75c-0.42,2.15 -0.84,4.25 -1.20,6.28c2.95,-0.06 5.82,-0.28 8.57,-0.65"/>
		<path class="stroke" d="m264.87,520.84l11.31,0.37"/>
		<text class="number" y="524" x="259.1">2</text>
		<path class="stroke" d="m264.20,531.20l10.73,0.14"/>
		<text class="number" y="532.98" x="259.03">3</text>
		<path class="stroke" d="m289.23,512.72l-2.06,9.56"/>
		<text class="number" y="518.26" x="291.34">1</text>
	</g>
	<g>
		<path d="m300.76,432.95c-4.56,0.59 -8.45,0.95 -11.70,1.12c-3.21,0.14 -6.89,0.12 -11.06,-0.06l-0.25,0.34c0.23,1.39 0.39,2.70 0.45,3.95c4.12,-0.12 7.98,-0.23 11.62,-0.39c-0.20,0.09 -0.28,0.31 -0.17,0.64c0.28,0.43 0.45,1.46 0.53,3.12c0.09,1.62 0.14,2.81 0.17,3.56c-4.03,0.20 -8.37,0.25 -13,0.06l-0.20,0.31c0.31,1.31 0.42,2.67 0.37,4.12c4.62,-0.14 8.95,-0.34 13.06,-0.56c0.03,0.42 0.09,1.39 0.17,2.87c0.12,1.42 0.18,3.28 0.15,5.56c-2.09,-0.42 -3.90,-0.59 -5.43,-0.5c-1.53,0.09 -3,0.5 -4.39,1.25c-1.37,0.70 -2.28,1.78 -2.67,3.14c-0.37,1.37 -0.39,2.56 -0.12,3.56c0.31,0.96 0.78,1.78 1.39,2.43c0.62,0.64 1.59,1.20 2.89,1.67c1.34,0.5 2.56,0.75 3.64,0.78c1.09,0.03 2.21,-0.06 3.37,-0.31c1.18,-0.25 2.21,-0.75 3.09,-1.45c0.89,-0.71 1.48,-1.62 1.78,-2.75c0.28,-1.15 0.45,-2.03 0.56,-2.59c2.17,1.06 4.70,2.59 7.59,4.56c0.73,-1.81 1.53,-3.28 2.37,-4.37l0,-0.37c-3.78,-1.70 -7.03,-3 -9.75,-3.87c-0.09,-2.53 -0.17,-4.64 -0.28,-6.34c-0.06,-1.67 -0.12,-2.87 -0.17,-3.56c3.31,-0.20 6.20,-0.45 8.67,-0.78l-0.42,-4.17c-2.53,0.42 -5.34,0.78 -8.43,1.03c-0.06,-1.65 -0.12,-3.49 -0.20,-5.53l0.37,-0.78c0.21,-0.34 0.18,-0.56 -0.09,-0.65l-3.92,-0.14c3.64,-0.17 7.14,-0.45 10.5,-0.84l-0.45,-4.06l-0.01,0zm-35.5,0.20c-0.53,0.03 -0.64,0.25 -0.39,0.64c0.28,0.31 0.28,2.15 0,5.5c-0.25,3.34 -0.45,7.56 -0.64,12.65c-0.15,5.09 -0.09,8.78 0.17,11.09c0.31,2.28 0.92,4.12 1.87,5.53c0.92,1.42 2.06,2.06 3.37,1.87c1.31,-0.14 3.09,-1.56 5.34,-4.25c-1.03,-1.09 -2.06,-2.34 -3.09,-3.75l-0.25,0.03c-0.89,1.84 -1.53,2.67 -1.89,2.5c-0.37,-0.17 -0.70,-1.03 -1.03,-2.53c-0.31,-1.5 -0.39,-4.92 -0.28,-10.28c0.14,-5.34 0.56,-10.92 1.20,-16.81l0.64,-0.75c0.37,-0.37 0.31,-0.64 -0.14,-0.81l-4.87,-0.64l0,0.00zm21.25,27.28c1.01,0.02 2.42,0.29 4.25,0.81c-0.03,0.81 -0.12,1.71 -0.28,2.71c-0.12,0.95 -0.56,1.62 -1.34,1.95c-0.75,0.31 -1.53,0.5 -2.31,0.56c-0.78,0.06 -1.70,-0.06 -2.84,-0.37c-1.09,-0.31 -1.71,-1.03 -1.87,-2.14c-0.12,-1.12 0.14,-1.93 0.87,-2.43c0.73,-0.53 1.62,-0.87 2.62,-1.03c0.25,-0.03 0.56,-0.06 0.89,-0.06z"/>
		<path class="stroke" d="m260.32,434.51c-1.04,4.89 -1.04,14.57 -0.82,19.56"/>
		<text class="number" y="442.47" x="253.59">1</text>
		<path class="stroke" d="m277.39,431.01l19.10,-0.14"/>
		<text class="number" y="434.18" x="271.62">2</text>
		<path class="stroke" d="m277.14,442.20l10.73,0.13"/>
		<text class="number" y="445.03" x="270.93">3</text>
		<path class="stroke" d="m306.01,437.53l0.51,15.29"/>
		<text class="number" y="436.91" x="303.82">4</text>
		<path class="stroke" d="m281.95,470.73c-2.88,-0.98 -4.95,-2.79 -6.23,-5.98c-1.35,-3.38 1.73,-6.72 3.29,-9.15"/>
		<path class="stroke" d="m299.67,457.47l8.82,3.09"/>
	</g>
	<g>
		<path d="m285.95,352.23c-1.53,0 -3.28,0.20 -5.20,0.64c-1.90,0.39 -3.78,1.17 -5.62,2.37c-1.84,1.18 -3.5,2.65 -5,4.37c-1.46,1.70 -2.71,3.92 -3.71,6.67c-1,2.75 -1.34,5.12 -1.06,7.12c0.28,2 0.87,3.81 1.78,5.42c0.92,1.59 1.95,2.75 3.09,3.45c1.12,0.68 2.21,0.96 3.31,0.81c1.09,-0.18 2.40,-0.84 3.93,-1.93c1.56,-1.09 3.20,-3.25 4.95,-6.5c1.75,-3.28 3.53,-8.89 5.31,-16.87l0.64,-0.64c0.31,-0.23 0.28,-0.45 -0.09,-0.64l-3.28,-0.71c1.67,-0.06 3.48,0.15 5.45,0.62c1.96,0.45 3.71,1.28 5.25,2.45c1.56,1.17 2.65,2.75 3.28,4.67c0.62,1.89 0.84,3.89 0.65,6c-0.15,2.06 -0.68,3.95 -1.59,5.67c-0.89,1.68 -2.34,3.06 -4.31,4.15c-1.92,1.06 -4.75,1.92 -8.45,2.59l0,0.37c0.67,1.25 1.17,2.62 1.5,4.14c4.62,-1.25 8.09,-2.62 10.39,-4.12c2.34,-1.5 4.09,-3.31 5.25,-5.45c1.14,-2.15 1.78,-4.59 1.89,-7.31c0.15,-2.75 -0.17,-5.25 -1.03,-7.5c-0.81,-2.24 -2.28,-4.21 -4.39,-5.87c-2.09,-1.64 -4.31,-2.73 -6.64,-3.28c-2.34,-0.53 -4.42,-0.78 -6.31,-0.78l0,0.04zm-2.53,3.75l0,0.12c0.20,0.59 -0.17,2.92 -1.17,7.03c-1,4.06 -2.18,7.39 -3.59,10.03c-1.37,2.59 -2.62,4.17 -3.71,4.78c-1.06,0.59 -1.87,0.81 -2.42,0.64c-0.56,-0.14 -1.20,-0.84 -1.95,-2.06c-0.71,-1.20 -1.09,-2.56 -1.12,-4.06c0,-1.53 0.39,-3.34 1.20,-5.42c0.81,-2.12 1.84,-3.87 3.06,-5.25c1.25,-1.39 2.70,-2.64 4.39,-3.75c1.67,-1.09 3.45,-1.78 5.34,-2.06l-0.01,0z"/>
		<path class="stroke" d="m291.26,359.16l-3.95,12.16"/>
		<text class="number" y="368.78" x="291.51">1</text>
		<path class="stroke" d="m278.47,384.04c0,0 -6.23,3.69 -9.78,2.07c-3.53,-1.60 -4.97,-7.82 -5.84,-10.43"/>
		<path class="stroke" d="m285.10,349.88c0,0 6.95,-1.80 12.51,1.32c5.54,3.12 7.87,8.23 9.70,11.17"/>
	</g>
	<g>
		<path d="m294.54,275.82l0.32,-0.64c0.23,-0.53 0.54,-0.59 0.88,-0.17l3.14,3.69c0.09,0.5 -0.10,0.75 -0.60,0.75c-0.59,0 -2.13,0.37 -4.63,1.12c-2.46,0.75 -5.40,1.89 -8.81,3.42c-3.37,1.5 -5.69,2.79 -6.97,3.88c-1.25,1.06 -2.20,2.21 -2.85,3.46c-0.62,1.20 -0.78,2.45 -0.45,3.75c0.34,1.25 0.87,2.10 1.59,2.57c0.75,0.42 1.88,0.78 3.41,1.06c1.53,0.25 3.71,0.34 6.56,0.28c2.87,-0.06 6.79,-0.34 11.76,-0.88l0.14,0.28c-0.25,1.20 -0.45,2.82 -0.60,4.82c-5,0 -9.04,0 -12.14,0c-3.06,0 -5.75,-0.23 -8.09,-0.70c-2.34,-0.45 -4.01,-1.29 -5.01,-2.48c-1,-1.17 -1.64,-2.59 -1.95,-4.25c-0.28,-1.68 -0.07,-3.32 0.59,-4.92c0.71,-1.62 1.73,-3.07 3.04,-4.35c1.31,-1.31 2.95,-2.50 4.95,-3.59c-1.06,-3.78 -1.70,-7.29 -1.95,-10.54c-0.25,-3.24 -0.60,-5.01 -1.07,-5.29c0,-0.48 0.26,-0.73 0.79,-0.75l4.45,-0.13c0.39,0.14 0.47,0.39 0.22,0.75l-0.37,0.92c0.17,5.92 0.79,10.29 1.82,13.07c3.14,-1.5 7.10,-3.20 11.85,-5.10"/>
		<path class="stroke" d="m283.97,260.64l3.53,13.94"/>
		<text class="number" y="266.41" x="287.24">1</text>
		<path class="stroke" d="m298.94,283.13l-12.64,5"/>
		<text class="number" y="291.59" x="295.63">2</text>
	</g>
	<g>
		<path d="m302.35,193.75c0.53,1.31 1.06,2.64 1.59,4.03l-0.28,0.23c-2.92,0.12 -5.84,0.28 -8.70,0.46c-0.89,0.34 -2.06,0.98 -3.45,1.92c-1.40,0.92 -2.93,2.17 -4.59,3.75c-1.62,1.56 -2.59,3.31 -2.90,5.28c-0.28,1.96 0.06,3.45 1.03,4.45c1,0.96 2.26,1.54 3.79,1.73c1.56,0.17 4.13,0.00 7.73,-0.51c0.28,1.46 0.66,2.95 1.16,4.45l-0.23,0.31c-3.17,0.37 -5.78,0.46 -7.81,0.28c-2,-0.14 -3.84,-0.67 -5.53,-1.59c-1.65,-0.90 -2.89,-2.10 -3.70,-3.60c-0.81,-1.53 -1.10,-3.31 -0.89,-5.34c0.21,-2.03 1.14,-3.96 2.76,-5.81c1.64,-1.84 3.48,-3.42 5.48,-4.73c-1.09,0.09 -3.46,0.34 -7.12,0.75c-3.65,0.37 -8.39,0.92 -14.20,1.67c-0.25,-1.70 -0.59,-3.10 -1.03,-4.17l0.17,-0.32c3.42,-0.14 6.34,-0.31 8.70,-0.50c6.75,-5.12 11.54,-8.92 14.39,-11.42c-3.62,0.31 -8.00,0.75 -13.16,1.31c-0.21,-1.59 -0.62,-2.87 -1.21,-3.84l0.28,-0.42c3.95,0.09 7.25,0.06 9.88,-0.09c2.64,-0.14 5.14,-0.34 7.5,-0.56l0.32,-0.37c0.12,-0.18 0.28,-0.20 0.45,-0.04c1.09,0.75 2.32,1.65 3.70,2.71c0.42,0.56 0.31,0.92 -0.37,1.12l-1.21,0.23c-4.75,3.65 -9.50,7.26 -14.28,10.82c1.25,-0.09 3.67,-0.31 7.31,-0.64c3.62,-0.34 8.42,-0.85 14.42,-1.54"/>
		<path class="stroke" d="m272.92,178.28l17.66,0.28"/>
		<text class="number" y="176.88" x="275.35">1</text>
		<path class="stroke" d="m266.60,192.96c0,0 -6.19,4.78 -5.62,8.32c0.57,3.53 7.84,4.59 11.44,5.53"/>
		<path class="stroke" d="m302.66,189.77c0,0 5.69,2.61 5.88,6.03c0.17,3.42 -4.08,6.39 -6.62,8.53"/>
	</g>
	<g>
		<path d="m274.94,98.28c-0.06,0.87 -0.37,2.28 -0.89,4.25c3.64,1.09 6.87,1.75 9.62,1.96c2.78,0.18 7,0.18 12.64,0l0,-4.21c-5.31,0.25 -9.25,0.31 -11.78,0.18c-2.5,-0.12 -5.59,-0.84 -9.31,-2.18l-0.28,0zm-4.75,20c-0.92,2.62 -1.25,4.75 -0.95,6.34c0.28,1.59 0.84,2.84 1.67,3.75c0.84,0.90 2.06,1.59 3.67,2.09c1.62,0.5 3.17,0.87 4.64,1.12c1.5,0.20 3.90,0.34 7.25,0.34c3.34,0 8.06,-0.06 14.15,-0.14l-0.37,-4.87c-6.03,0.53 -10.53,0.78 -13.5,0.75c-2.92,-0.03 -5.03,-0.12 -6.28,-0.28c-1.20,-0.17 -2.42,-0.42 -3.64,-0.78c-1.20,-0.34 -2.09,-0.75 -2.62,-1.20c-0.53,-0.5 -0.78,-1.21 -0.78,-2.12c0.03,-0.92 0.45,-2.12 1.34,-3.56l-4.59,-1.39l0,-0.02z"/>
		<path class="stroke" d="m275.28,94.83c1.17,0.29 18.25,0.58 18.25,0.58"/>
		<path class="stroke" d="m268.79,133.98l25.61,2.94"/>
		<text class="number" y="92.42" x="275.76">1</text>
		<text class="number" y="136.56" x="263.06">2</text>
	</g>
	<g>
		<path d="m277.03,13.65c-0.26,0.06 -0.38,0.26 -0.37,0.59c0.34,0.43 0.42,2.93 0.31,7.5c-2.87,0.18 -5.95,0.25 -9.31,0.15c0.37,1.56 0.53,2.96 0.5,4.21c3.17,-0.21 6.12,-0.46 8.78,-0.71c-0.03,2.62 -0.03,5.4 0,8.34c-2.78,1.03 -5.09,2.34 -6.92,3.9c-1.81,1.56 -2.90,3.43 -3.25,5.65c-0.34,2.18 -0.31,3.9 0.06,5.12c0.37,1.21 1.14,2.21 2.37,3.03c1.20,0.81 2.59,1.31 4.12,1.46c1.56,0.18 3.09,-0.09 4.59,-0.84c1.53,-0.71 2.53,-1.5 3,-2.34c0.5,-0.87 0.64,-2.21 0.45,-4c-0.17,-1.78 -0.31,-4.87 -0.39,-9.31c0.81,-0.21 1.89,-0.46 3.31,-0.71c1.43,-0.28 3.28,-0.43 5.5,-0.46c2.21,-0.03 3.96,0.15 5.28,0.56c1.34,0.4 2.49,1.03 3.43,1.87c0.92,0.84 1.48,1.84 1.70,2.96c0.25,1.12 0.20,2.15 -0.12,3.12c-0.34,0.96 -0.92,1.81 -1.78,2.53c-0.84,0.68 -1.78,1.12 -2.78,1.31c-1,0.15 -2.03,0 -3.12,-0.5c-1.06,-0.5 -2.12,-1.71 -3.18,-3.65l-0.37,-0.06c-0.78,0.9 -1.89,1.75 -3.34,2.53c1.28,1.84 2.39,3.18 3.37,4c0.95,0.78 2.31,1.28 4,1.53c1.67,0.25 3.28,0.12 4.81,-0.37c1.53,-0.53 2.89,-1.37 4.12,-2.56c1.21,-1.18 2.09,-2.56 2.59,-4.09c0.53,-1.53 0.53,-3.12 0.03,-4.78c-0.49,-1.68 -1.37,-3.09 -2.62,-4.21c-1.25,-1.15 -2.81,-2.06 -4.67,-2.71c-1.84,-0.68 -4.12,-1.03 -6.87,-1.03c-2.75,-0.03 -4.84,0.09 -6.28,0.37c-1.42,0.25 -2.45,0.43 -3.06,0.56c0,-2.31 0.03,-4.84 0.06,-7.59c4.39,-0.43 8.06,-0.93 11,-1.5l-1.14,-3.84c-3.03,0.71 -6.31,1.28 -9.81,1.68c0.03,-1.84 0.09,-3.74 0.14,-5.75l0.59,-0.81c0.34,-0.34 0.31,-0.59 -0.09,-0.75l-4.31,-0.4c-0.12,0 -0.22,-0.02 -0.31,0l-0.01,0zm19.62,4.62l-2.17,3.56c3.59,1.65 6.42,3.9 8.53,6.71c1.28,-1.46 2.31,-2.56 3.12,-3.25l0,-0.37c-2.20,-2.03 -5.37,-4.24 -9.45,-6.65l-0.01,0zm-19.62,19.56c0.06,3.93 0.12,6.65 0.17,8.18c0.06,1.53 -0.34,2.5 -1.20,2.9c-0.84,0.4 -1.70,0.56 -2.62,0.43c-0.89,-0.15 -1.64,-0.56 -2.20,-1.18c-0.53,-0.62 -0.68,-1.84 -0.5,-3.68c0.20,-1.87 0.89,-3.28 2.09,-4.21c1.17,-0.93 2.62,-1.75 4.28,-2.43l-0.01,-0.01z"/>
		<path class="stroke" d="m262.39,19.19l11.85,-0.31"/>
		<text class="number" y="17.36" x="261.72">1</text>
		<path class="stroke" d="m284.94,6.4l0.04,11.58"/>
		<text class="number" y="13.82" x="287.43">2</text>
		<path class="stroke" d="m277.10,55.09c0,0 -8.82,0.35 -11.53,-2.42c-2.59,-2.67 -2.01,-8.72 -2.01,-11.82"/>
		<path class="stroke" d="m298.59,15.39l9.47,6.55"/>
		<text class="number" y="15.07" x="301.17">3</text>
	</g>
</svg>
